<svg id="Layer_1" data-name="Layer 1" xmlns="http://www.w3.org/2000/svg" viewBox="0 0 100 100"><title>line-bank</title><line x1="13" y1="80" x2="87" y2="80" fill="none" stroke="#ff6200" stroke-miterlimit="10" stroke-width="2"/><line x1="16" y1="76" x2="84" y2="76" fill="none" stroke="#ff6200" stroke-miterlimit="10" stroke-width="2"/><line x1="19" y1="72" x2="81" y2="72" fill="none" stroke="#ff6200" stroke-miterlimit="10" stroke-width="2"/><line x1="18" y1="33.98" x2="82" y2="33.98" fill="none" stroke="#ff6200" stroke-miterlimit="10" stroke-width="2"/><polygon points="81 30.17 19 30.17 50 19.87 81 30.17" fill="none" stroke="#ff6200" stroke-linecap="round" stroke-linejoin="round" stroke-width="2"/><line x1="46" y1="35.17" x2="46" y2="71" fill="none" stroke="#ff6200" stroke-linecap="round" stroke-linejoin="round" stroke-width="2"/><line x1="54" y1="35.17" x2="54" y2="71" fill="none" stroke="#ff6200" stroke-linecap="round" stroke-linejoin="round" stroke-width="2"/><line x1="67" y1="35.17" x2="67" y2="71" fill="none" stroke="#ff6200" stroke-linecap="round" stroke-linejoin="round" stroke-width="2"/><line x1="75" y1="35.17" x2="75" y2="71" fill="none" stroke="#ff6200" stroke-linecap="round" stroke-linejoin="round" stroke-width="2"/><line x1="25" y1="35.17" x2="25" y2="71" fill="none" stroke="#ff6200" stroke-linecap="round" stroke-linejoin="round" stroke-width="2"/><polyline points="50 37.17 50 47 50 59.17 50 69" fill="none" stroke="#ff6200" stroke-linejoin="round" stroke-width="2"/><polyline points="71 38.17 71 46 71 60.17 71 68" fill="none" stroke="#ff6200" stroke-linecap="square" stroke-linejoin="round" stroke-width="2"/><polyline points="29 38.17 29 46 29 60.17 29 68" fill="none" stroke="#ff6200" stroke-linecap="square" stroke-linejoin="round" stroke-width="2"/><line x1="33" y1="35.17" x2="33" y2="71" fill="none" stroke="#ff6200" stroke-linecap="round" stroke-linejoin="round" stroke-width="2"/></svg>