<svg id="Layer_1" data-name="Layer 1" xmlns="http://www.w3.org/2000/svg" viewBox="0 0 100 100"><title>line-abc</title><path d="M46,53a3,3,0,0,1,3,3V82a3,3,0,0,1-3,3H20a3,3,0,0,1-3-3V56a3,3,0,0,1,3-3H46m0-2H20a5,5,0,0,0-5,5V82a5,5,0,0,0,5,5H46a5,5,0,0,0,5-5V56a5,5,0,0,0-5-5Z" fill="#ff6200"/><path d="M80,53a3,3,0,0,1,3,3V82a3,3,0,0,1-3,3H54a3,3,0,0,1-3-3V56a3,3,0,0,1,3-3H80m0-2H54a5,5,0,0,0-5,5V82a5,5,0,0,0,5,5H80a5,5,0,0,0,5-5V56a5,5,0,0,0-5-5Z" fill="#ff6200"/><path d="M63,19a3,3,0,0,1,3,3V48a3,3,0,0,1-3,3H37a3,3,0,0,1-3-3V22a3,3,0,0,1,3-3H63m0-2H37a5,5,0,0,0-5,5V48a5,5,0,0,0,5,5H63a5,5,0,0,0,5-5V22a5,5,0,0,0-5-5Z" fill="#ff6200"/><path d="M55.76,42a.7.7,0,0,1-.69-.58L54,38H48.16l-1.06,3.42c-.11.34-.28.58-.67.58h-.88a.45.45,0,0,1-.38-.21.52.52,0,0,1,0-.48l4.7-13.79a.65.65,0,0,1,.67-.53H51.6a.64.64,0,0,1,.67.52l4.88,13.75a.59.59,0,0,1,0,.5.49.49,0,0,1-.41.23Zm-2.34-6-2.36-7-2.32,7Z" fill="#ff6200"/><path d="M51.6,27.32c.3,0,.4.08.48.32L57,41.37c.08.24,0,.36-.26.36h-.94c-.32,0-.42-.08-.5-.32L54.14,38H48l-1.1,3.44c-.08.24-.16.32-.48.32h-.88c-.24,0-.3-.14-.22-.36L50,27.64c.08-.24.18-.32.48-.32Zm2.1,9.28-2.64-7.82-2.6,7.82Z" fill="#ff6200"/><path d="M29.35,77c-.33,0-.35-.5-.35-.81V62.42c0-.32,0-.42.35-.42h3.14a5.25,5.25,0,0,1,3.8,1.11,3.69,3.69,0,0,1,1,2.78,3.64,3.64,0,0,1-1.44,2.92,3.83,3.83,0,0,1,2.22,3.69c0,2.85-1.76,4.5-5.1,4.5Zm3.38-2c2.42,0,3.4-.76,3.4-2.64a2.25,2.25,0,0,0-.62-1.67A3.45,3.45,0,0,0,33,70H31v5Zm-.14-7c1.9,0,2.78-.61,2.78-2.21a1.63,1.63,0,0,0-.56-1.4c-.47-.45-1.21-.4-2.32-.4H31v4Z" fill="#ff6200"/><path d="M29.35,76.51a.3.3,0,0,1-.34-.32V62.42a.3.3,0,0,1,.34-.32h3.14a5.11,5.11,0,0,1,3.66,1.1,3.53,3.53,0,0,1,1,2.66,3.42,3.42,0,0,1-1.68,3,3.46,3.46,0,0,1,2.46,3.5c0,3.2-2.22,4.16-4.9,4.16Zm3.24-8c2,0,3-.88,3-2.54a2.43,2.43,0,0,0-.62-1.8,3.42,3.42,0,0,0-2.46-.72H30.55v5.06Zm.14,6.74c2.14,0,3.6-.58,3.6-2.84a2.56,2.56,0,0,0-.68-1.86,3.62,3.62,0,0,0-2.68-.8H30.55v5.5Z" fill="#ff6200"/><path d="M68,76.91c-3.81,0-5.9-2.62-5.9-7.38,0-5,2.22-7.82,6.24-7.82a6.85,6.85,0,0,1,3.4.87.53.53,0,0,1,.22.77l-.18.42a.53.53,0,0,1-.46.37.65.65,0,0,1-.27-.07,6.33,6.33,0,0,0-2.74-.64c-3.49,0-4.22,3.24-4.22,6,0,3.88,1.37,5.76,4.18,5.76a7.53,7.53,0,0,0,2.61-.57.86.86,0,0,1,.32-.08.44.44,0,0,1,.42.34l.2.48c.13.31.15.56-.21.75A8.35,8.35,0,0,1,68,76.91Z" fill="#ff6200"/><path d="M62.34,69.53c0-4.52,1.82-7.62,6-7.62a6.61,6.61,0,0,1,3.3.84c.24.14.24.28.14.52l-.18.42c-.12.26-.24.3-.46.2a6.54,6.54,0,0,0-2.82-.66c-2.88,0-4.42,2.18-4.42,6.16,0,4.14,1.58,6,4.38,6A7.8,7.8,0,0,0,71,74.77c.24-.1.38-.12.48.14l.2.48c.12.28.1.38-.12.5a8.15,8.15,0,0,1-3.52.82C64.3,76.71,62.34,74.07,62.34,69.53Z" fill="#ff6200"/></svg>