<svg id="Layer_1" data-name="Layer 1" xmlns="http://www.w3.org/2000/svg" viewBox="0 0 100 100"><title>404-error</title><path d="M15,92.3a7.64,7.64,0,0,0,7.78,7.7H77.26A7.6,7.6,0,0,0,85,92.3V19L65.52,0H22.78A7.66,7.66,0,0,0,15,7.72Z" fill="#fff"/><path d="M65,11.4c0,4.36,3.92,7.6,8.28,7.6H85L65-.34Z" fill="#e7e1da"/><path d="M33.9,82.56h4.84V78.37a.26.26,0,0,1,.09-.24.52.52,0,0,1,.27-.06h1.08a.52.52,0,0,1,.27.06c.06,0,.09.12.09.24v4.18h1.76a.26.26,0,0,1,.24.09.51.51,0,0,1,.06.27v.81a.51.51,0,0,1-.06.27.26.26,0,0,1-.24.09H40.54v4c0,.12,0,.2-.09.24a.51.51,0,0,1-.27.06H39.1a.51.51,0,0,1-.27-.06c-.06,0-.09-.12-.09-.24v-4H32.15a.26.26,0,0,1-.24-.09.52.52,0,0,1-.06-.27v-.32a3,3,0,0,1,.07-.7,3.68,3.68,0,0,1,.25-.65l4.25-9.58a.61.61,0,0,1,.15-.23.4.4,0,0,1,.26-.07h1.3q.36,0,.23.32Z" fill="#e7e1da"/><path d="M49.83,88.61a4.37,4.37,0,0,1-3.77-2q-1.38-2-1.38-6a11.79,11.79,0,0,1,1.46-6.47A4.62,4.62,0,0,1,50.21,72a4.83,4.83,0,0,1,2.13.46A4.19,4.19,0,0,1,54,73.86a7.38,7.38,0,0,1,1,2.48,15.45,15.45,0,0,1,.36,3.57,12,12,0,0,1-1.44,6.45A4.58,4.58,0,0,1,49.83,88.61Zm.09-1.48a3,3,0,0,0,2.72-1.82,11.6,11.6,0,0,0,1-5.31,10.52,10.52,0,0,0-.9-4.88,2.82,2.82,0,0,0-2.59-1.67,3,3,0,0,0-2.68,1.77,11.06,11.06,0,0,0-1,5.28,11.17,11.17,0,0,0,.87,4.93A2.78,2.78,0,0,0,49.92,87.13Z" fill="#e7e1da"/><path d="M59.24,82.56h4.84V78.37a.26.26,0,0,1,.09-.24.52.52,0,0,1,.27-.06h1.08a.52.52,0,0,1,.27.06c.06,0,.09.12.09.24v4.18h1.76a.26.26,0,0,1,.24.09.51.51,0,0,1,.06.27v.81a.51.51,0,0,1-.06.27.26.26,0,0,1-.24.09H65.87v4c0,.12,0,.2-.09.24a.51.51,0,0,1-.27.06H64.43a.51.51,0,0,1-.27-.06c-.06,0-.09-.12-.09-.24v-4H57.48a.26.26,0,0,1-.24-.09.52.52,0,0,1-.06-.27v-.32a3,3,0,0,1,.07-.7,3.68,3.68,0,0,1,.25-.65l4.25-9.58a.61.61,0,0,1,.15-.23.4.4,0,0,1,.26-.07h1.3q.36,0,.23.32Z" fill="#e7e1da"/><path d="M48.86,47.74q-.54,0-.7-.22A.87.87,0,0,1,48,47l-.11-2.65A13.62,13.62,0,0,1,48,41.66a5.14,5.14,0,0,1,.84-2.11,7,7,0,0,1,1.81-1.76,19.83,19.83,0,0,1,3.06-1.68,10.42,10.42,0,0,0,3.87-2.68,6.17,6.17,0,0,0,1.22-4A5.55,5.55,0,0,0,57,24.87a7.78,7.78,0,0,0-5.08-1.51A20.4,20.4,0,0,0,44.37,25a.68.68,0,0,1-1-.38l-.76-1.73a1.21,1.21,0,0,1-.08-.57.56.56,0,0,1,.35-.46,21.19,21.19,0,0,1,4.33-1.54,20.9,20.9,0,0,1,5.08-.62,14.89,14.89,0,0,1,4,.54A9.75,9.75,0,0,1,59.7,22a8.73,8.73,0,0,1,2.41,3A9.53,9.53,0,0,1,63,29.3a9.1,9.1,0,0,1-2,6.14,15.69,15.69,0,0,1-5.27,3.87q-1.14.54-1.89,1a4.79,4.79,0,0,0-1.19,1,3.19,3.19,0,0,0-.62,1.14,6.48,6.48,0,0,0-.24,1.49L51.72,47a.87.87,0,0,1-.16.54.86.86,0,0,1-.7.22Zm-1,11.46q-.81,0-.81-.76V54.23q0-.76.81-.76h4q.86,0,.87.76v4.22q0,.76-.87.76Z" fill="#ff6200"/></svg>