<svg id="Layer_1" data-name="Layer 1" xmlns="http://www.w3.org/2000/svg" viewBox="0 0 100 100"><title>step6</title><path d="M24.11,34a25.59,25.59,0,0,0,36,36A63.44,63.44,0,0,1,38.56,55.61,63.44,63.44,0,0,1,24.11,34" fill="#f4efe7"/><path d="M64.59,65.32A25.6,25.6,0,0,0,28.85,29.58,25.68,25.68,0,0,0,24.11,34,63.44,63.44,0,0,0,38.56,55.61,63.45,63.45,0,0,0,60.15,70.06a25.71,25.71,0,0,0,4.44-4.74" fill="#fff"/><path d="M19,51.15A25.59,25.59,0,0,1,62.45,32.78l3.69-3.69a30.72,30.72,0,0,0-21.51-8.77c-29.63,0-36.7,44.5-18.94,49.15l.58-.51A25.51,25.51,0,0,1,19,51.15" fill="#fb3c07"/><path d="M68.27,69.1a30.81,30.81,0,0,0-43.2-43.2h0a31.13,31.13,0,0,0-2.82,2.45A30.81,30.81,0,1,0,65.82,71.91a31.13,31.13,0,0,0,2.45-2.82Zm-5.38-1.7q-.37.42-.76.82A25.59,25.59,0,1,1,25.95,32q.4-.39.82-.76h0A25.58,25.58,0,0,1,62.89,67.4Z" fill="#ff6a00"/><path d="M43.83,19.51A30.67,30.67,0,0,0,25.07,25.9a45.05,45.05,0,0,0,1.7,5.38A25.58,25.58,0,0,1,62.89,67.4a45,45,0,0,0,5.38,1.7A30.81,30.81,0,0,0,43.83,19.51" fill="#ff7e00"/><rect x="40.18" y="42.57" width="23.97" height="3.75" transform="translate(-16.15 49.9) rotate(-45)" fill="#e7e1da"/><rect x="38.29" y="37.99" width="3.75" height="17.48" transform="translate(-21.28 42.09) rotate(-45)" fill="#e7e1da"/><rect x="38.84" y="41.23" width="23.97" height="3.75" transform="translate(-15.59 48.56) rotate(-45)" fill="#843502"/><rect x="36.95" y="36.65" width="3.75" height="17.48" transform="translate(-20.73 40.75) rotate(-45)" fill="#622808"/><path d="M48.12,50.34a4.29,4.29,0,1,1-4.29-4.29,4.29,4.29,0,0,1,4.29,4.29" fill="#a34102"/><rect x="40.18" y="42.57" width="23.97" height="3.75" transform="translate(-16.15 49.9) rotate(-45)" fill="#e7e1da"/><rect x="38.29" y="37.99" width="3.75" height="17.48" transform="translate(-21.28 42.09) rotate(-45)" fill="#e7e1da"/><rect x="38.84" y="41.23" width="23.97" height="3.75" transform="translate(-15.59 48.56) rotate(-45)" fill="#843502"/><rect x="36.95" y="36.65" width="3.75" height="17.48" transform="translate(-20.73 40.75) rotate(-45)" fill="#622808"/><path d="M48.12,50.34a4.29,4.29,0,1,1-4.29-4.29,4.29,4.29,0,0,1,4.29,4.29" fill="#a34102"/><path d="M56,72.36a14.7,14.7,0,0,0,26.38,8.92l-20.6-20.6A14.69,14.69,0,0,0,56,72.36" fill="#e7e1da"/><path d="M70.71,57.66a14.63,14.63,0,0,0-8.92,3l20.6,20.6A14.69,14.69,0,0,0,70.71,57.66" fill="#f4efe7"/><path d="M58.88,72.74A12.2,12.2,0,0,1,79.59,64l1.76-1.76A14.69,14.69,0,0,0,60.57,83l1.76-1.76a12.17,12.17,0,0,1-3.45-8.5" fill="#e3a856"/><path d="M70.71,57.66a14.65,14.65,0,0,0-10.29,4.21l1.76,1.76A12.2,12.2,0,0,1,79.43,80.88l1.76,1.76a14.69,14.69,0,0,0-10.49-25" fill="#ffce37"/><path d="M70.71,84.57a12.2,12.2,0,0,1-8.53-20.94l-1.76-1.76A14.69,14.69,0,1,0,81.2,82.65l-1.76-1.76a12.17,12.17,0,0,1-8.73,3.68" fill="#ffbd00"/><path d="M72.11,71.15V69.36H66.55v-.12a4.84,4.84,0,1,1,9.69,0H78a6.63,6.63,0,0,0-13.25-.46l2.37,2.37Z" fill="#fff"/><polygon points="72.11 75.35 72.11 73.56 69.56 73.56 71.35 75.35 72.11 75.35" fill="#fff"/><path d="M78,75.47H76.23a4.83,4.83,0,0,1-1.38,3.39l1.26,1.27A6.61,6.61,0,0,0,78,75.47" fill="#fff"/><path d="M74.85,78.86a4.84,4.84,0,0,1-8.3-3.39v-.12h4.8l-1.79-1.79h-3V71.15h.6l-2.37-2.37c0,.15,0,.31,0,.46v.12H62.3v1.79h2.46v2.41H62.3v1.79h2.46v.12a6.63,6.63,0,0,0,11.36,4.65Z" fill="#e4f5fb"/></svg>