<svg id="Layer_1" data-name="Layer 1" xmlns="http://www.w3.org/2000/svg" viewBox="0 0 100 100"><title>step4</title><path d="M30.41,24H5a5,5,0,0,0-5,5v7.1L35.41,71.55V29A5,5,0,0,0,30.41,24Z" fill="#d5cfcb"/><path d="M0,78.65a5,5,0,0,0,5,5H30.41c2.76,0,5-3,5-3V71.55L0,36.08Z" fill="#d5cfcb"/><polygon points="1.48 25.43 3.14 23.76 6.11 23.97 1.48 25.43" fill="#e7e1da"/><path d="M32,22.45H6.63a5,5,0,0,0-5,5V77a5,5,0,0,0,5,5H32a5,5,0,0,0,5-5V27.46A5,5,0,0,0,32,22.45Z" fill="#f4efe7"/><path d="M1.63,34.43V77a5,5,0,0,0,5,5H32a5,5,0,0,0,5-5V69.9Z" fill="#e7e1da"/><rect x="16.29" y="25.42" width="6.09" height="3.19" fill="#d5cfcb"/><path d="M32,33.92A2.79,2.79,0,0,0,29.23,31H9.57A2.64,2.64,0,0,0,7,33.92V62.61C7,64.23,8,66,9.57,66H29.23C30.85,66,32,64.23,32,62.61V61.07h0Z" fill="#ff7e00"/><path d="M7,35.47V63a2.93,2.93,0,0,0,2.86,3H29.07a2.93,2.93,0,0,0,2.86-3V61.45Z" fill="#ff6a00"/><path d="M23.4,39.44H15.29a5,5,0,0,0-5,5v1.11a5,5,0,0,0,4.71,5V53l1.44-2.49h7a5,5,0,0,0,5-5V44.44A5,5,0,0,0,23.4,39.44Z" fill="#fff"/><rect x="12.84" y="42.7" width="12.44" height="1.39" fill="#a34102"/><rect x="12.84" y="45" width="6.49" height="1.39" fill="#a34102"/><rect x="72.66" y="43.51" width="7.68" height="13.51" rx="3.03" ry="3.03" fill="#f4efe7"/><rect x="62.83" y="43.51" width="7.68" height="13.51" rx="3.03" ry="3.03" fill="#f4efe7"/><rect x="53" y="43.51" width="7.68" height="13.51" rx="3.03" ry="3.03" fill="#f4efe7"/><rect x="43.17" y="43.51" width="7.68" height="13.51" rx="3.03" ry="3.03" fill="#f4efe7"/><path d="M47.62,50.23l.88,1c.06.07.09.12,0,.21l-.58.44c-.08.07-.14.08-.22,0L47,50.71l-.67,1.12c-.07.12-.14.11-.22,0l-.58-.44c-.11-.09-.08-.14,0-.21l.84-1-1.23-.31c-.13,0-.15-.09-.11-.21l.23-.66c0-.11.08-.15.19-.11l1.17.5-.11-1.26c0-.12.06-.14.14-.14h.73c.09,0,.15,0,.14.14l-.11,1.26,1.23-.5c.11,0,.14,0,.19.11l.23.66c0,.12,0,.18-.11.21Z" fill="#d5cfcb"/><path d="M57.45,50.23l.88,1c.06.07.09.12,0,.21l-.58.44c-.08.07-.14.08-.22,0l-.72-1.12-.67,1.12c-.07.12-.14.11-.22,0l-.58-.44c-.11-.09-.08-.14,0-.21l.84-1-1.23-.31c-.13,0-.15-.09-.11-.21L55,49c0-.11.08-.15.19-.11l1.17.5-.11-1.26c0-.12.06-.14.14-.14h.73c.09,0,.15,0,.14.14l-.11,1.26,1.23-.5c.11,0,.14,0,.19.11l.23.66c0,.12,0,.18-.11.21Z" fill="#d5cfcb"/><path d="M67.28,50.23l.88,1c.06.07.09.12,0,.21l-.58.44c-.08.07-.14.08-.22,0l-.72-1.12L66,51.82c-.07.12-.14.11-.22,0l-.58-.44c-.11-.09-.08-.14,0-.21l.84-1-1.23-.31c-.13,0-.15-.09-.11-.21l.23-.66c0-.11.08-.15.19-.11l1.17.5-.11-1.26c0-.12.06-.14.14-.14H67c.09,0,.15,0,.14.14L67,49.44l1.23-.5c.11,0,.14,0,.19.11l.23.66c0,.12,0,.18-.11.21Z" fill="#d5cfcb"/><path d="M77.11,50.23l.88,1c.06.07.09.12,0,.21l-.58.44c-.08.07-.14.08-.22,0l-.72-1.12-.67,1.12c-.07.12-.14.11-.22,0L75,51.43c-.11-.09-.08-.14,0-.21l.84-1-1.23-.31c-.13,0-.15-.09-.11-.21L74.7,49c0-.11.08-.15.19-.11l1.17.5-.11-1.26c0-.12.06-.14.14-.14h.73c.09,0,.15,0,.14.14l-.11,1.26,1.23-.5c.11,0,.14,0,.19.11l.23.66c0,.12,0,.18-.11.21Z" fill="#d5cfcb"/><rect x="92.32" y="43.51" width="7.68" height="13.51" rx="3.03" ry="3.03" fill="#f4efe7"/><rect x="82.49" y="43.51" width="7.68" height="13.51" rx="3.03" ry="3.03" fill="#f4efe7"/><path d="M86.94,50.23l.88,1c.06.07.09.12,0,.21l-.58.44c-.08.07-.14.08-.22,0l-.72-1.12-.67,1.12c-.07.12-.14.11-.22,0l-.58-.44c-.11-.09-.08-.14,0-.21l.84-1-1.23-.31c-.13,0-.15-.09-.11-.21l.23-.66c0-.11.08-.15.19-.11l1.17.5-.11-1.26c0-.12.06-.14.14-.14h.73c.09,0,.15,0,.14.14l-.11,1.26,1.23-.5c.11,0,.14,0,.19.11l.23.66c0,.12,0,.18-.11.21Z" fill="#d5cfcb"/><path d="M96.77,50.23l.88,1c.06.07.09.12,0,.21l-.58.44c-.08.07-.14.08-.22,0l-.72-1.12-.67,1.12c-.07.12-.14.11-.22,0l-.58-.44c-.11-.09-.08-.14,0-.21l.84-1-1.23-.31c-.13,0-.15-.09-.11-.21l.23-.66c0-.11.08-.15.19-.11l1.17.5-.11-1.26c0-.12.06-.14.14-.14h.73c.09,0,.15,0,.14.14l-.11,1.26,1.23-.5c.11,0,.14,0,.19.11l.23.66c0,.12,0,.18-.11.21Z" fill="#d5cfcb"/><rect x="17.02" y="70.9" width="4.82" height="4.82" fill="#d5cfcb"/><path d="M22.82,76.84a4.94,4.94,0,1,0-7-7h0a4.94,4.94,0,1,0,7,7ZM18,75.19a.54.54,0,0,1-.54-.54V72a.54.54,0,0,1,.16-.38h0A.54.54,0,0,1,18,71.5h2.6a.54.54,0,0,1,.54.54v2.6A.54.54,0,0,1,21,75h0a.54.54,0,0,1-.38.16Z" fill="#f4efe7"/></svg>