<svg id="Layer_1" data-name="Layer 1" xmlns="http://www.w3.org/2000/svg" viewBox="0 0 100 60.84"><title>tan-code</title><path d="M32,0H5.48c-1.05,0-4,3-4,3h0A5,5,0,0,0,0,6.53V56.2a5,5,0,0,0,5,5H30.41c2.4,0,4.42-2.31,4.89-2.9A5,5,0,0,0,37,54.55V5A5,5,0,0,0,32,0Z" fill="#59463d"/><path d="M1.63,12V54.55a5,5,0,0,0,5,5H32a5,5,0,0,0,5-5v-7.1Z" fill="#332925"/><rect x="16.29" y="2.97" width="6.09" height="3.19" fill="#332925"/><path d="M32,11.47a2.79,2.79,0,0,0-2.77-2.92H9.57A2.64,2.64,0,0,0,7,11.47V40.16c0,1.62,1,3.39,2.58,3.39H29.23c1.61,0,2.77-1.77,2.77-3.39V38.62h0Z" fill="#f4efe7"/><path d="M7,13V40.57a2.93,2.93,0,0,0,2.86,3H29.07a2.93,2.93,0,0,0,2.86-3V39Z" fill="#d5cfcb"/><path d="M23.4,17H15.29a5,5,0,0,0-5,5v1.11a5,5,0,0,0,4.71,5V30.6l1.44-2.49h7a5,5,0,0,0,5-5V22A5,5,0,0,0,23.4,17Z" fill="#ff6200"/><rect x="12.84" y="20.37" width="12.44" height="1.39" fill="#a34102"/><rect x="12.84" y="23.24" width="6.49" height="1.39" fill="#a34102"/><rect x="72.66" y="21.06" width="7.68" height="13.51" rx="3.03" ry="3.03" fill="#fff"/><rect x="62.83" y="21.06" width="7.68" height="13.51" rx="3.03" ry="3.03" fill="#fff"/><rect x="53" y="21.06" width="7.68" height="13.51" rx="3.03" ry="3.03" fill="#fff"/><rect x="43.17" y="21.06" width="7.68" height="13.51" rx="3.03" ry="3.03" fill="#fff"/><path d="M47.62,27.78l.88,1c.06.07.09.12,0,.21l-.58.44c-.08.07-.14.08-.22,0L47,28.26l-.67,1.12c-.07.12-.14.11-.22,0L45.49,29c-.11-.09-.08-.14,0-.21l.84-1-1.23-.31c-.13,0-.15-.09-.11-.21l.23-.66c0-.11.08-.15.19-.11l1.17.5-.11-1.26c0-.12.06-.14.14-.14h.73c.09,0,.15,0,.14.14L47.36,27l1.23-.5c.11,0,.14,0,.19.11l.23.66c0,.12,0,.18-.11.21Z" fill="#d5cfcb"/><path d="M57.45,27.78l.88,1c.06.07.09.12,0,.21l-.58.44c-.08.07-.14.08-.22,0l-.72-1.12-.67,1.12c-.07.12-.14.11-.22,0L55.32,29c-.11-.09-.08-.14,0-.21l.84-1-1.23-.31c-.13,0-.15-.09-.11-.21L55,26.6c0-.11.08-.15.19-.11l1.17.5-.11-1.26c0-.12.06-.14.14-.14h.73c.09,0,.15,0,.14.14L57.19,27l1.23-.5c.11,0,.14,0,.19.11l.23.66c0,.12,0,.18-.11.21Z" fill="#d5cfcb"/><path d="M67.28,27.78l.88,1c.06.07.09.12,0,.21l-.58.44c-.08.07-.14.08-.22,0l-.72-1.12L66,29.37c-.07.12-.14.11-.22,0L65.15,29c-.11-.09-.08-.14,0-.21l.84-1-1.23-.31c-.13,0-.15-.09-.11-.21l.23-.66c0-.11.08-.15.19-.11l1.17.5-.11-1.26c0-.12.06-.14.14-.14H67c.09,0,.15,0,.14.14L67,27l1.23-.5c.11,0,.14,0,.19.11l.23.66c0,.12,0,.18-.11.21Z" fill="#d5cfcb"/><path d="M77.11,27.78l.88,1c.06.07.09.12,0,.21l-.58.44c-.08.07-.14.08-.22,0l-.72-1.12-.67,1.12c-.07.12-.14.11-.22,0L75,29c-.11-.09-.08-.14,0-.21l.84-1-1.23-.31c-.13,0-.15-.09-.11-.21l.23-.66c0-.11.08-.15.19-.11l1.17.5-.11-1.26c0-.12.06-.14.14-.14h.73c.09,0,.15,0,.14.14L76.85,27l1.23-.5c.11,0,.14,0,.19.11l.23.66c0,.12,0,.18-.11.21Z" fill="#d5cfcb"/><rect x="92.32" y="21.06" width="7.68" height="13.51" rx="3.03" ry="3.03" fill="#fff"/><rect x="82.49" y="21.06" width="7.68" height="13.51" rx="3.03" ry="3.03" fill="#fff"/><path d="M86.94,27.78l.88,1c.06.07.09.12,0,.21l-.58.44c-.08.07-.14.08-.22,0l-.72-1.12-.67,1.12c-.07.12-.14.11-.22,0L84.81,29c-.11-.09-.08-.14,0-.21l.84-1-1.23-.31c-.13,0-.15-.09-.11-.21l.23-.66c0-.11.08-.15.19-.11l1.17.5-.11-1.26c0-.12.06-.14.14-.14h.73c.09,0,.15,0,.14.14L86.68,27l1.23-.5c.11,0,.14,0,.19.11l.23.66c0,.12,0,.18-.11.21Z" fill="#d5cfcb"/><path d="M96.77,27.78l.88,1c.06.07.09.12,0,.21l-.58.44c-.08.07-.14.08-.22,0l-.72-1.12-.67,1.12c-.07.12-.14.11-.22,0L94.64,29c-.11-.09-.08-.14,0-.21l.84-1-1.23-.31c-.13,0-.15-.09-.11-.21l.23-.66c0-.11.08-.15.19-.11l1.17.5-.11-1.26c0-.12.06-.14.14-.14h.73c.09,0,.15,0,.14.14L96.51,27l1.23-.5c.11,0,.14,0,.19.11l.23.66c0,.12,0,.18-.11.21Z" fill="#d5cfcb"/><rect x="17.02" y="48.45" width="4.82" height="4.82" fill="#332925"/><path d="M22.82,54.39a4.94,4.94,0,1,0-7-7h0a4.94,4.94,0,1,0,7,7ZM18,52.74a.54.54,0,0,1-.54-.54v-2.6a.54.54,0,0,1,.16-.38h0a.54.54,0,0,1,.38-.16h2.6a.54.54,0,0,1,.54.54v2.6a.54.54,0,0,1-.16.38h0a.54.54,0,0,1-.38.16Z" fill="#59463d"/></svg>