<svg id="Layer_1" data-name="Layer 1" xmlns="http://www.w3.org/2000/svg" viewBox="0 0 100 68"><title>alert</title><path d="M47.46,53.29c-.67,0-1-.29-1-.91v-5c0-.62.29-.91,1-.91h5c.72,0,1,.29,1,.91v5c0,.62-.29.91-1,.91Zm5.08-11.94c0,.48-.19.62-.72.62H48.28c-.53,0-.72-.14-.72-.62l-.77-21.59c0-.57.24-.86.91-.86h4.6c.67,0,.91.29.91.86Z" fill="#333"/><path d="M43,8.07,17.71,51.81a8.12,8.12,0,0,0,7,12.18H75.26a8.12,8.12,0,0,0,7-12.18L57,8.07A8.12,8.12,0,0,0,43,8.07Z" fill="none" stroke="#ff6200" stroke-miterlimit="10" stroke-width="7"/></svg>