<svg id="Layer_1" data-name="Layer 1" xmlns="http://www.w3.org/2000/svg" viewBox="0 0 100 100"><title>step2</title><path d="M79.52,71.77C74.7,69.53,59.1,63,59.1,63H41.81s-15.62,6.53-20.44,8.77-6.2,12.47-6.2,16.73c1.69,2.36,21.4,3.74,35.25,3.74S84,90.89,85.7,88.53C85.7,84.27,84.34,74,79.52,71.77Z" fill="#59463d"/><polygon points="50.42 58 41 58 41 74 50.42 74 60 74 60 58 50.42 58" fill="#e7e1da"/><path d="M50.42,71.67s-5.54-.22-8.91-.22c.34,5.27,4.62,20.69,4.62,20.69l4.29,0,4.32,0S59,76.72,59.34,71.45C56,71.45,50.42,71.67,50.42,71.67Z" fill="#e4f5fb"/><polygon points="51.91 78.29 53.4 76.69 51.76 71.72 50.42 71.66 49.08 71.72 47.44 76.69 48.97 78.29 45.89 91.16 46.16 92.14 50.42 92.18 54.71 92.14 55 91.16 51.91 78.29" fill="#ff6a00"/><path d="M65.87,38.5c0-1.68-.55-16.7-15.45-16.7S35,36.82,35,38.5c-1.34,0-2.16.34-2.16,3.7,0,5.16,4,9.08,5.34,9.64,0,1.34,2.32,5.27,3.33,6.73s6.23,5.27,8.91,5.16c2.68.11,7.93-3.7,8.94-5.16s3.35-5.38,3.35-6.73c1.34-.56,5.35-4.48,5.35-9.64C68.06,38.83,67.21,38.5,65.87,38.5Z" fill="#f4efe7"/><path d="M41.25,61.14c-1.23.78-2.91,1.68-3,4.15s1.51,13,1.51,13,3.36-6.61,10.7-6.61C44.3,71.67,41.92,68.2,41.25,61.14Z" fill="#c7ebf7"/><path d="M62.68,65.29c-.11-2.47-1.79-3.36-3-4.15-.67,7.06-3,10.54-9.19,10.54,7.34,0,10.7,6.61,10.7,6.61S62.8,67.75,62.68,65.29Z" fill="#c7ebf7"/><path d="M38.39,45c.12-2.47.4-9.78,1.16-12.58,1.81,1.5,8.33,3.91,12,3s4.71-2.73,5-3.7c1,1.27,3,.74,4.6,1.23.83.25,1.52.74,1.52,11.21l.79-.19c.28-4.33,2.39-5.55,2.39-5.55,0-7,.82-12.6-1.55-13.86,0-3-4.35-6-13.9-6S35,23.23,35,38.5a8.88,8.88,0,0,1,2.57,6.18Z" fill="#843502"/></svg>