<svg id="Layer_1" data-name="Layer 1" xmlns="http://www.w3.org/2000/svg" viewBox="0 0 100 100"><title>step5</title><rect x="2.28" y="26.21" width="36.34" height="50.88" rx="2.33" ry="2.33" fill="#843502"/><rect x="6.34" y="26.21" width="31.74" height="50.88" rx="2.42" ry="2.42" fill="#f4efe7"/><rect x="2.28" y="26.21" width="35.26" height="50.88" rx="3.03" ry="3.03" fill="#a34102"/><path d="M35,77.09H3.37A1.09,1.09,0,0,1,2.28,76V49.55c7.59,7.48,23.47,10,35.26,10v15A2.57,2.57,0,0,1,35,77.09Z" fill="#843502"/><circle cx="19.91" cy="43.83" r="10.7" fill="#843502"/><path d="M10.91,50.13s2.82-1.34,9-1.34,9,1.34,9,1.34" fill="#843502"/><path d="M28.91,37.56s-2.82,1.34-9,1.34-9-1.34-9-1.34" fill="#843502"/><path d="M19.91,34a9.87,9.87,0,1,0,9.87,9.87A9.88,9.88,0,0,0,19.91,34ZM20,43H10.86a11.75,11.75,0,0,1,1.72-4.34A22.11,22.11,0,0,0,20,39.88Zm0,1v3.81a25.93,25.93,0,0,0-7.4.88A8.64,8.64,0,0,1,10.86,44Zm0,0h9a8.58,8.58,0,0,1-1.64,4.7A25.1,25.1,0,0,0,20,47.81Zm0-1V39.88a21.4,21.4,0,0,0,7.33-1.22A11.4,11.4,0,0,1,29,43Zm6.67-4.82a26.54,26.54,0,0,1-6.67.89V34.78A8.54,8.54,0,0,1,26.67,38.18ZM20,34.78v4.29a20.13,20.13,0,0,1-6.67-.89A8.54,8.54,0,0,1,20,34.78ZM13.35,49.5A20.07,20.07,0,0,1,20,48.62v4.26A8.52,8.52,0,0,1,13.35,49.5ZM20,52.88V48.62a26.5,26.5,0,0,1,6.65.88A8.52,8.52,0,0,1,20,52.88Z" fill="#ff6200"/><path d="M81.75,37H64.49c-3.41,0-6.89,7.89-6.89,7.89,0,1.64,5.25,3.11,6.89,3.11H81.75c1.64,0,6.89-1.47,6.89-3.11C88.63,44.89,85.16,37,81.75,37Z" fill="#836c62"/><path d="M61,39.48A27.25,27.25,0,0,0,57.6,45c0,1.64,5.25,3,6.89,3H81.75c1.64,0,6.89-1.36,6.89-3a31.21,31.21,0,0,0-2.74-4.71C80.14,40.84,62.86,41.54,61,39.48Z" fill="#332925"/><rect x="49.33" y="40.21" width="3.54" height="4.85" rx="1.77" ry="1.77" transform="translate(102.2 85.27) rotate(180)" fill="#ff6a00"/><path d="M50.38,42.64H93.09a5.51,5.51,0,0,1,5.51,5.51v23a6,6,0,0,1-6,6H50.88a6.47,6.47,0,0,1-6.47-6.47V48.61A6,6,0,0,1,50.38,42.64Z" fill="#59463d"/><path d="M64.5,63.51a113.62,113.62,0,0,1-20.09-11V75.27a1.83,1.83,0,0,0,1.82,1.86H96.76a1.86,1.86,0,0,0,1.86-1.86V71.56C89.49,71.55,77.1,68.84,64.5,63.51Z" fill="#332925"/><circle cx="72.11" cy="60.49" r="11.89" fill="#d5cfcb"/><circle cx="72.9" cy="59.71" r="11.44" fill="#fff"/><path d="M72.17,62.67a25.31,25.31,0,0,1-10.25-6.14,11.44,11.44,0,0,0,21.61,7.41A25.74,25.74,0,0,1,72.17,62.67Z" fill="#f4efe7"/><circle cx="72.9" cy="59.71" r="8.08" fill="#e4f5fb"/><path d="M73.27,60.49a22.61,22.61,0,0,1-7.72-4.13,8.08,8.08,0,1,0,15.2,5.32A23.61,23.61,0,0,1,73.27,60.49Z" fill="#c7ebf7"/><path d="M72.38,52.32a8.08,8.08,0,0,1,6.72,12.57,8.08,8.08,0,1,0-12.93-9.67A8.07,8.07,0,0,1,72.38,52.32Z" fill="#d5cfcb"/><rect x="88.68" y="46.11" width="6.61" height="4.04" fill="#e4f5fb"/><path d="M88.68,50.15h6.61V48.81c-2.07,0-5.06.09-6.61-2Z" fill="#c7ebf7"/><path d="M9.22,66.11c-.07,0-.1,0-.1-.09V62.71c0-.06,0-.09.1-.09h.69a1.59,1.59,0,0,1,1.16.33,1,1,0,0,1,.26.75,1.1,1.1,0,0,1-1.24,1.15,2.76,2.76,0,0,1-.35,0V66c0,.06,0,.09-.1.09Zm.52-3v1.23h.32a.59.59,0,0,0,.66-.66.55.55,0,0,0-.17-.45.84.84,0,0,0-.55-.14Z" fill="#f4efe7"/><path d="M13.36,65.26H12.1l-.24.76a.12.12,0,0,1-.13.09h-.41c-.07,0-.09,0-.07-.11l1.15-3.3c0-.06.05-.09.14-.09h.4c.08,0,.12,0,.14.09L14.26,66a.07.07,0,0,1-.07.1h-.45a.12.12,0,0,1-.13-.09Zm-1.1-.48h.94l-.05-.16c-.17-.51-.31-1-.41-1.3-.1.33-.26.83-.42,1.29Z" fill="#f4efe7"/><path d="M15.54,65.64c.35,0,.62-.17.62-.47s-.31-.47-.62-.62-.88-.43-.88-1a1,1,0,0,1,1.08-1,1.52,1.52,0,0,1,.86.25.1.1,0,0,1,0,.15l-.14.24a.09.09,0,0,1-.14,0,1.14,1.14,0,0,0-.58-.17c-.33,0-.5.18-.5.42s.29.41.6.57c.57.28.89.54.89,1.06s-.41,1-1.18,1a1.72,1.72,0,0,1-1-.32.11.11,0,0,1,0-.15l.15-.27a.09.09,0,0,1,.14,0A1.32,1.32,0,0,0,15.54,65.64Z" fill="#f4efe7"/><path d="M18.16,65.64c.35,0,.62-.17.62-.47s-.31-.47-.62-.62-.88-.43-.88-1a1,1,0,0,1,1.08-1,1.52,1.52,0,0,1,.86.25.1.1,0,0,1,0,.15l-.14.24a.09.09,0,0,1-.14,0,1.14,1.14,0,0,0-.58-.17c-.33,0-.5.18-.5.42s.29.41.6.57c.57.28.89.54.89,1.06s-.41,1-1.18,1a1.72,1.72,0,0,1-1-.32.11.11,0,0,1,0-.15l.15-.27a.09.09,0,0,1,.14,0A1.32,1.32,0,0,0,18.16,65.64Z" fill="#f4efe7"/><path d="M20,66.11c-.07,0-.1,0-.1-.09V62.71c0-.06,0-.09.1-.09h.69a1.59,1.59,0,0,1,1.16.33,1,1,0,0,1,.26.75,1.1,1.1,0,0,1-1.24,1.15,2.76,2.76,0,0,1-.35,0V66c0,.06,0,.09-.1.09Zm.52-3v1.23h.32a.59.59,0,0,0,.66-.66.55.55,0,0,0-.17-.45.84.84,0,0,0-.55-.14Z" fill="#f4efe7"/><path d="M23.94,66.16c-.85,0-1.45-.54-1.45-1.75S23,62.56,24,62.56s1.45.54,1.45,1.75S24.94,66.16,23.94,66.16ZM24,63.08c-.58,0-.9.47-.9,1.31s.31,1.25.83,1.25.9-.47.9-1.31S24.55,63.08,24,63.08Z" fill="#f4efe7"/><path d="M27.12,64.85c-.06-.11-.1-.12-.21-.12h-.23V66c0,.06,0,.09-.1.09h-.42c-.07,0-.1,0-.1-.09V62.71c0-.06,0-.09.1-.09H27a1.46,1.46,0,0,1,1.1.33.94.94,0,0,1,.23.68,1,1,0,0,1-.64,1L28.45,66c0,.07,0,.13-.05.13H28c-.09,0-.11,0-.16-.08Zm-.45-1.74v1.14H27c.45,0,.67-.22.67-.61a.5.5,0,0,0-.13-.38.79.79,0,0,0-.57-.16Z" fill="#f4efe7"/><path d="M30.08,63.11V66c0,.06,0,.09-.1.09h-.42c-.07,0-.1,0-.1-.09v-2.9h-.81c-.07,0-.1,0-.1-.09v-.32c0-.06,0-.09.1-.09h2.24c.07,0,.1,0,.1.09V63c0,.06,0,.09-.1.09Z" fill="#f4efe7"/><rect x="19.33" y="34.03" width="1.23" height="19.08" fill="#ff6200"/></svg>