<svg id="Layer_1" data-name="Layer 1" xmlns="http://www.w3.org/2000/svg" viewBox="0 0 100 100"><title>checkpoint</title><path d="M3,88,2.07,45.31,4.95,43.4a4.53,4.53,0,0,1,2.62-.83H18a4.58,4.58,0,0,1,4.56,4.56V88l-3,2Z" fill="#e7e1da"/><path d="M0,90V49.13a4.58,4.58,0,0,1,4.56-4.56H15a4.58,4.58,0,0,1,4.56,4.56V90Z" fill="#fff"/><rect x="21.56" y="48.8" width="77.5" height="5.7" fill="#fff"/><ellipse cx="99.06" cy="51.65" rx="0.94" ry="2.85" fill="#e7e1da"/><path d="M83.26,48.8c-.52,0-.94,1.28-.94,2.85s.42,2.85.94,2.85H93.89V48.8Z" fill="#ff6200"/><path d="M61.06,51.65c0,1.58.42,2.85.94,2.85H72.63V48.8H62C61.48,48.8,61.06,50.07,61.06,51.65Z" fill="#ff6200"/><path d="M39.8,51.65c0,1.58.42,2.85.94,2.85H51.37V48.8H40.74C40.22,48.8,39.8,50.07,39.8,51.65Z" fill="#ff6200"/><path d="M20.36,51.65c0,1.58.42,2.85.94,2.85h8.81V48.8H21.3C20.78,48.8,20.36,50.07,20.36,51.65Z" fill="#ff6200"/><ellipse cx="30.11" cy="51.65" rx="0.94" ry="2.85" fill="#fff"/><circle cx="9.79" cy="51.65" r="4.42" fill="#e7e1da"/><circle cx="9.79" cy="51.65" r="2.96" fill="#d5cfcb"/><ellipse cx="51.37" cy="51.65" rx="0.94" ry="2.85" fill="#fff"/><ellipse cx="72.63" cy="51.65" rx="0.94" ry="2.85" fill="#fff"/><ellipse cx="93.89" cy="51.65" rx="0.94" ry="2.85" fill="#fff"/></svg>