<svg id="Layer_1" data-name="Layer 1" xmlns="http://www.w3.org/2000/svg" viewBox="0 0 100 100"><title>coffee</title><circle cx="18.29" cy="50.9" r="8.17" fill="none" stroke="#d5cfcb" stroke-miterlimit="10" stroke-width="4"/><ellipse cx="50.42" cy="73.31" rx="32.91" ry="16.89" fill="#e7e1da"/><ellipse cx="50.42" cy="73.31" rx="45.54" ry="12.63" fill="#fff"/><path d="M76.14,37.9c2.53-.95,4-2,4-3.22,0-3.55-13.3-6.44-29.7-6.44s-29.7,2.88-29.7,6.44c0,1.17,1.45,2.27,4,3.22,5.14-1.92,14.72-3.22,25.71-3.22S71,36,76.14,37.9Z" fill="#e7e1da"/><path d="M76.14,37.9C71,36,61.41,34.69,50.42,34.69S29.85,36,24.71,37.9c5.14,1.92,14.72,3.22,25.71,3.22S71,39.83,76.14,37.9Z" fill="#d5cfcb"/><path d="M20.73,72.38c0,3.55,13.3,6.44,29.7,6.44s29.7-2.88,29.7-6.44V34.69c0,3.55-13.3,6.44-29.7,6.44s-29.7-2.88-29.7-6.44Z" fill="#fff"/><path d="M20.73,72.38c0,3.55,13.3,6.44,29.7,6.44s29.7-2.88,29.7-6.44V34.69c0-3.55-13.3-6.44-29.7-6.44s-29.7,2.88-29.7,6.44Z" fill="none" stroke="#fff" stroke-miterlimit="10" stroke-width="2"/><path d="M20.73,72.38c0,3.55,13.3,6.44,29.7,6.44s29.7-2.88,29.7-6.44" fill="none" stroke="#d5cfcb" stroke-miterlimit="10"/></svg>