<svg id="Layer_1" data-name="Layer 1" xmlns="http://www.w3.org/2000/svg" viewBox="0 0 100 100"><title>step1</title><path d="M83,88.11V48.62a6.12,6.12,0,0,1-5.56-3.35,7.07,7.07,0,0,1-6,3.37,7.17,7.17,0,0,1-6.07-3.37,7.23,7.23,0,0,1-12.22,0,7.26,7.26,0,0,1-12.26,0,7.26,7.26,0,0,1-12.26,0,7.27,7.27,0,0,1-6.13,3.37,7.39,7.39,0,0,1-6.2-3.37A8.42,8.42,0,0,1,10,48.64V88.78h0V93H83V88.11Z" fill="#f4efe7"/><rect x="17.83" y="60.24" width="40.43" height="16.17" fill="#c7ebf7"/><path d="M56.91,61.59V75.06H19.18V61.59H56.91m2.7-2.7H16.49V77.76H59.61V58.89Z" fill="#fff"/><polygon points="26.9 75.06 19.18 75.06 19.18 61.59 48.22 61.59 26.9 75.06" fill="#e4f5fb"/><rect x="36.99" y="61.59" width="2.7" height="13.48" fill="#fff"/><rect x="6.49" y="88.25" width="80.63" height="4.72" fill="#e7e1da"/><path d="M94.65,73.54c0,7.43-13.45,24.3-13.45,24.3S67.74,81,67.74,73.54a13.45,13.45,0,1,1,26.91,0Z" fill="#ff6200"/><path d="M81.19,100l-1.05-1.32c-.56-.7-13.75-17.33-13.75-25.14a14.8,14.8,0,1,1,29.61,0C96,81.35,82.81,98,82.25,98.68Zm0-38.57A12.12,12.12,0,0,0,69.09,73.54c0,5.22,8,16.68,12.11,22.11C85.35,90.22,93.3,78.76,93.3,73.54A12.12,12.12,0,0,0,81.19,61.43Z" fill="#fff"/><circle cx="81.19" cy="72.51" r="5.1" fill="#fb3c07"/><circle cx="81.19" cy="73.86" r="5.1" fill="#a34102"/><path d="M83,42H10v7.21h.07a7.4,7.4,0,0,0,6.2-3.37,7.31,7.31,0,0,0,12.32,0,7.28,7.28,0,0,0,12.28,0,7.27,7.27,0,0,0,12.27,0,7.27,7.27,0,0,0,12.27,0,7.27,7.27,0,0,0,12.27,0c1.29,2,2.93,3.37,5.51,3.37H83Z" fill="#e7e1da"/><polygon points="31.52 0.99 31.52 4.16 34.67 2.97 34.67 1.38 31.52 0.99" fill="#ff6a00"/><polygon points="37.82 0.99 34.67 1.38 34.67 2.97 37.82 4.16 37.82 0.99" fill="#ff6a00"/><polygon points="28.82 5.22 28.82 20.31 34.67 20.31 34.67 2.97 28.82 5.22" fill="#f4efe7"/><polygon points="40.53 5.22 34.67 2.97 34.67 20.31 40.53 20.31 40.53 5.22" fill="#e7e1da"/><path d="M37.82,1c0,.55-1.41,1-3.15,1s-3.15-.44-3.15-1,1.41-1,3.15-1,3.15.44,3.15,1" fill="#ff6a00"/><path d="M65.56,41.37a6.13,6.13,0,1,0,12.27,0Z" fill="#e7e1da"/><path d="M53.29,41.37a6.13,6.13,0,1,0,12.27,0Z" fill="#e7e1da"/><path d="M41,41.37a6.13,6.13,0,0,0,12.27,0Z" fill="#e7e1da"/><path d="M28.75,41.37a6.13,6.13,0,1,0,12.27,0Z" fill="#e7e1da"/><path d="M16.49,41.37a6.13,6.13,0,1,0,12.27,0Z" fill="#e7e1da"/><path d="M4.22,41.37a6.13,6.13,0,1,0,12.27,0Z" fill="#e7e1da"/><path d="M77.61,41.37a6.13,6.13,0,1,0,12.27,0Z" fill="#ff6a00"/><path d="M65.34,41.37a6.13,6.13,0,1,0,12.27,0Z" fill="#f4efe7"/><path d="M53.07,41.37a6.13,6.13,0,1,0,12.27,0Z" fill="#ff6a00"/><path d="M40.81,41.37a6.13,6.13,0,0,0,12.27,0Z" fill="#f4efe7"/><path d="M28.54,41.37a6.13,6.13,0,1,0,12.27,0Z" fill="#ff6a00"/><path d="M16.27,41.37a6.13,6.13,0,1,0,12.27,0Z" fill="#f4efe7"/><path d="M4,41.37a6.13,6.13,0,1,0,12.27,0Z" fill="#ff6a00"/><path d="M25.06,21.4H16.27L4,41.37H16.27Z" fill="#ff7e00"/><path d="M42.65,21.4H33.86l-5.32,20H40.81Z" fill="#ff7e00"/><path d="M60.24,21.4H51.44l1.63,20H65.34Z" fill="#ff7e00"/><path d="M77.82,21.4H69l8.58,20H89.88Z" fill="#ff7e00"/><path d="M77.61,21.72H16.27a1.4,1.4,0,1,1,0-2.8H77.61a1.4,1.4,0,0,1,0,2.8Z" fill="#ff6a00"/></svg>