<svg id="Layer_1" data-name="Layer 1" xmlns="http://www.w3.org/2000/svg" viewBox="0 0 100 100"><title>step3</title><rect x="10" y="24" width="81" height="50" fill="#e4f5fb"/><rect x="10" y="24" width="81" height="50" fill="#e4f5fb"/><path d="M90.43,20H10a4,4,0,0,0-4,4V74.34A3.71,3.71,0,0,0,10,78H90.43C92.66,78,95,76.58,95,74.34V24C95,21.72,92.66,20,90.43,20ZM91,74H10V24H91Z" fill="#f4efe7"/><path d="M0,80v2.07A4,4,0,0,0,3.92,86H96.53c2.41,0,3.47-2.46,3.47-4.3V80Z" fill="#e7e1da"/><rect x="48.58" y="82.88" width="3.29" height="0.74" fill="#fff"/><path d="M100,81.7V80H44.72S100,83.54,100,81.7Z" fill="#f4efe7"/><rect x="48.58" y="82.88" width="3.29" height="0.74" fill="#fff"/><path d="M91,68.69V74H10V24H26.2c-.12-1-.19-3-.19-4H10a4,4,0,0,0-4,4V74.34A3.71,3.71,0,0,0,10,78H90.43C92.66,78,95,76.58,95,74.34V68.29C93,68.45,92,68.59,91,68.69Z" fill="#e7e1da"/><path d="M91,68.69h0V68C57,70.5,29.8,51,27.22,24H10V74H91Z" fill="#c7ebf7"/><path d="M95,40H67.81c-1.32,0-2.81.87-2.81,2.19V60.06C65,61.38,66.49,62,67.81,62H95Z" opacity="0.1"/><path d="M67.09,37.95H66a2.41,2.41,0,0,0-2.41,2.41V58.22A2.41,2.41,0,0,0,66,60.62H97.6a2.41,2.41,0,0,0,2.4-2.41v-.56a30.75,30.75,0,0,1-6.92.78c-13.83,0-25.14-9.05-26-20.49" fill="#ff6200"/><path d="M96.61,58.24a31.12,31.12,0,0,1-3.53.2h0a31.12,31.12,0,0,0,3.53-.2,26.81,26.81,0,0,0,3.39-.58V40.36A2.37,2.37,0,0,0,97.6,38H66c-1.32,0-2,1-2,2.36V58.22c0,1.32.65,2.78,2,2.78H97.6a2.77,2.77,0,0,0,2.4-2.78v-.56A30.38,30.38,0,0,1,96.61,58.24Z" fill="#ff6200"/><path d="M97.6,37.95H67.09c.86,11.43,12.17,20.49,26,20.49a30.75,30.75,0,0,0,6.92-.78V40.36a2.41,2.41,0,0,0-2.4-2.41" fill="#ff7e00"/><path d="M63.57,41.79v6.13h8.91a20,20,0,0,1-3-6.13Z" fill="#843502"/><path d="M100,41.79H69.44a20,20,0,0,0,3,6.13H100Z" fill="#a34102"/><rect x="65.09" y="49.16" width="3.65" height="3.65" fill="#ffce37"/><rect x="65.09" y="49.16" width="3.65" height="3.65" rx="1.81" ry="1.81" fill="#ffce37"/><circle cx="66.92" cy="50.99" r="0.79" fill="none" stroke="#ff6a00" stroke-miterlimit="10"/><line x1="67.7" y1="50.99" x2="68.74" y2="50.99" fill="none" stroke="#ff6a00" stroke-miterlimit="10"/><line x1="66.13" y1="50.99" x2="65.09" y2="50.99" fill="none" stroke="#ff6a00" stroke-miterlimit="10"/></svg>