<svg id="Layer_1" data-name="Layer 1" xmlns="http://www.w3.org/2000/svg" viewBox="0 0 100 100"><title>stopwatch</title><rect x="48.23" y="9.91" width="6.07" height="10.24" fill="#fb3c07"/><rect x="48.02" y="0.49" width="6.48" height="16.12" rx="3.24" ry="3.24" transform="translate(59.81 -42.72) rotate(90)" fill="#ff7e00"/><path d="M43.2,7.56v2a2.25,2.25,0,0,0,2.25,2.25H57.07C58.32,11.79,43.2,6.31,43.2,7.56Z" fill="#ff6a00"/><path d="M50.51,22.11a32.78,32.78,0,0,0-19.27,6.22A33,33,0,0,0,25.15,34h0A32.93,32.93,0,0,0,71.51,80.4h0a33.07,33.07,0,0,0,5.71-6.1,32.93,32.93,0,0,0-26.71-52.2Z" fill="#fff"/><path d="M25.15,34A32.93,32.93,0,0,0,71.51,80.4,81.61,81.61,0,0,1,43.74,61.82,81.62,81.62,0,0,1,25.15,34" fill="#f4efe7"/><path d="M77.92,56.06a.68.68,0,0,1-.68-.68.58.58,0,0,1,0-.13.56.56,0,0,1,0-.13l.06-.12.09-.11.11-.09.12-.06.13,0a.58.58,0,0,1,.27,0l.13,0,.12.06.1.09.09.11.06.12a.84.84,0,0,1,0,.13.9.9,0,0,1,0,.13.67.67,0,0,1-.2.48.71.71,0,0,1-.48.2Z" fill="#a34102"/><path d="M49.46,83.09h0a.69.69,0,0,1-.65-.72h0a.69.69,0,0,1,.72-.65h0a.68.68,0,0,1,.65.72h0a.68.68,0,0,1-.68.65h0Zm2.09-.65a.68.68,0,0,1,.64-.71h0a.68.68,0,0,1,.72.65h0a.68.68,0,0,1-.65.72h0A.68.68,0,0,1,51.55,82.45Zm-4.89.37h0a.68.68,0,0,1-.57-.77h0a.68.68,0,0,1,.78-.57h0a.68.68,0,0,1,.57.78h0a.68.68,0,0,1-.68.58h-.1Zm7.62-.57a.69.69,0,0,1,.57-.78h0a.68.68,0,0,1,.78.57h0a.69.69,0,0,1-.57.78H55A.68.68,0,0,1,54.29,82.24Zm-10.38,0a.69.69,0,0,1-.49-.83h0a.68.68,0,0,1,.83-.49h0a.68.68,0,0,1,.49.83h0a.68.68,0,0,1-.66.51h0ZM57,81.76a.68.68,0,0,1,.49-.83h0a.68.68,0,0,1,.83.49h0a.68.68,0,0,1-.49.83h0l-.17,0h0A.69.69,0,0,1,57,81.76Zm-15.76-.34a.69.69,0,0,1-.4-.88h0a.68.68,0,0,1,.88-.4h0a.68.68,0,0,1,.41.87h0a.69.69,0,0,1-.64.45h0A.73.73,0,0,1,41.23,81.42ZM59.62,81a.68.68,0,0,1,.4-.88h0a.69.69,0,0,1,.88.4h0a.69.69,0,0,1-.4.88h0a.71.71,0,0,1-.24,0h0A.68.68,0,0,1,59.62,81Zm-21-.7h0a.68.68,0,0,1-.31-.91h0a.68.68,0,0,1,.91-.31h0a.68.68,0,0,1,.31.91h0a.68.68,0,0,1-.61.38h0A.69.69,0,0,1,38.64,80.31ZM62.17,80a.68.68,0,0,1,.31-.91h0a.68.68,0,0,1,.91.31h0a.68.68,0,0,1-.31.91h0a.7.7,0,0,1-.3.07h0A.68.68,0,0,1,62.17,80Zm-26-1A.69.69,0,0,1,36,78h0a.68.68,0,0,1,.94-.22h0a.69.69,0,0,1,.22.94h0a.68.68,0,0,1-.58.32h0A.7.7,0,0,1,36.19,78.94Zm28.41-.23a.68.68,0,0,1,.21-.94h0a.68.68,0,0,1,.94.21h0a.69.69,0,0,1-.22.94h0a.69.69,0,0,1-.36.1h0A.68.68,0,0,1,64.6,78.71ZM33.88,77.33h0a.68.68,0,0,1-.12-1h0a.68.68,0,0,1,1-.12h0a.68.68,0,0,1,.12,1h0a.69.69,0,0,1-.54.27h0A.69.69,0,0,1,33.88,77.33Zm33-.13a.68.68,0,0,1,.12-1h0a.68.68,0,0,1,1,.12h0a.68.68,0,0,1-.12,1h0a.69.69,0,0,1-.42.14h0A.68.68,0,0,1,66.88,77.2Zm-35.14-1.7a.68.68,0,0,1,0-1h0a.68.68,0,0,1,1,0h0a.68.68,0,0,1,0,1h0a.67.67,0,0,1-.49.21h0A.7.7,0,0,1,31.75,75.51Zm37.26,0a.68.68,0,0,1,0-1h0a.68.68,0,0,1,1,0h0a.68.68,0,0,1,0,1h0a.67.67,0,0,1-.47.19h0A.68.68,0,0,1,69,75.47Zm-39.2-2a.68.68,0,0,1,.07-1h0a.68.68,0,0,1,1,.07h0a.68.68,0,0,1-.07,1h0a.68.68,0,0,1-.45.17h0A.68.68,0,0,1,29.81,73.47Zm41.14.06a.68.68,0,0,1-.07-1h0a.68.68,0,0,1,1-.07h0a.68.68,0,0,1,.07,1h0a.68.68,0,0,1-.52.24h0A.67.67,0,0,1,70.95,73.53ZM28.09,71.25a.68.68,0,0,1,.17-1h0a.68.68,0,0,1,.95.17h0a.68.68,0,0,1-.17,1h0a.69.69,0,0,1-.39.12h0A.68.68,0,0,1,28.09,71.25Zm44.59.15a.68.68,0,0,1-.17-1h0a.68.68,0,0,1,1-.17h0a.68.68,0,0,1,.17.95h0a.68.68,0,0,1-.56.29h0A.69.69,0,0,1,72.68,71.4ZM26.6,68.87h0a.68.68,0,0,1,.26-.93h0a.68.68,0,0,1,.93.26h0a.68.68,0,0,1-.26.93h0a.68.68,0,0,1-.33.09h0A.68.68,0,0,1,26.6,68.87Zm47.6.25a.68.68,0,0,1-.27-.93h0a.68.68,0,0,1,.93-.27h0a.68.68,0,0,1,.27.93h0a.68.68,0,0,1-.6.35h0A.69.69,0,0,1,74.19,69.11ZM25.36,66.34a.68.68,0,0,1,.36-.89h0a.68.68,0,0,1,.89.35h0a.68.68,0,0,1-.35.9h0a.69.69,0,0,1-.27.05h0A.68.68,0,0,1,25.36,66.34Zm50.11.34a.68.68,0,0,1-.36-.89h0a.68.68,0,0,1,.9-.36h0a.68.68,0,0,1,.35.9h0a.68.68,0,0,1-.63.41h0A.67.67,0,0,1,75.47,66.68Zm-51.09-3a.69.69,0,0,1,.45-.86h0a.68.68,0,0,1,.86.45h0a.68.68,0,0,1-.45.86h0a.72.72,0,0,1-.2,0h0A.68.68,0,0,1,24.38,63.71Zm52.11.43a.68.68,0,0,1-.45-.86h0a.68.68,0,0,1,.85-.45h0a.68.68,0,0,1,.45.86h0a.69.69,0,0,1-.65.48h0A.7.7,0,0,1,76.48,64.14ZM23.67,61a.68.68,0,0,1,.53-.81h0a.68.68,0,0,1,.81.53h0a.68.68,0,0,1-.53.81h-.14A.68.68,0,0,1,23.67,61Zm53.56.51a.68.68,0,0,1-.53-.81h0a.68.68,0,0,1,.81-.53h0A.68.68,0,0,1,78,61h0a.68.68,0,0,1-.67.55h-.14Zm-54-3.29h0a.69.69,0,0,1,.61-.75h0a.68.68,0,0,1,.75.61h0a.69.69,0,0,1-.61.75h-.07A.69.69,0,0,1,23.25,58.21Zm54.47.59a.68.68,0,0,1-.61-.75h0a.68.68,0,0,1,.74-.61h0a.68.68,0,0,1,.61.75h0a.68.68,0,0,1-.68.61h-.07ZM23.1,55.4a.68.68,0,0,1,.68-.68h0a.68.68,0,0,1,.68.68h0a.68.68,0,0,1-.68.68h0A.68.68,0,0,1,23.1,55.4Zm.75-2.06a.68.68,0,0,1-.61-.75h0A.68.68,0,0,1,24,52h0a.68.68,0,0,1,.61.75h0a.69.69,0,0,1-.68.61h-.07Zm53.25-.69a.69.69,0,0,1,.61-.75h0a.68.68,0,0,1,.75.61h0a.68.68,0,0,1-.61.75h-.07A.68.68,0,0,1,77.1,52.66Zm-52.9-2a.68.68,0,0,1-.53-.81h0a.68.68,0,0,1,.8-.54h0a.68.68,0,0,1,.54.81h0a.69.69,0,0,1-.67.55H24.2ZM76.69,50a.68.68,0,0,1,.53-.81h0a.68.68,0,0,1,.81.53h0a.68.68,0,0,1-.53.81h-.14A.68.68,0,0,1,76.69,50ZM24.81,48a.68.68,0,0,1-.45-.85h0a.68.68,0,0,1,.85-.45h0a.68.68,0,0,1,.45.85h0A.68.68,0,0,1,25,48h0A.7.7,0,0,1,24.81,48ZM76,47.43a.68.68,0,0,1,.44-.86h0a.68.68,0,0,1,.86.45h0a.68.68,0,0,1-.45.86h0a.72.72,0,0,1-.2,0h0A.68.68,0,0,1,76,47.43ZM25.69,45.36a.68.68,0,0,1-.36-.89h0a.68.68,0,0,1,.9-.36h0a.68.68,0,0,1,.36.89h0a.69.69,0,0,1-.63.42h0A.7.7,0,0,1,25.69,45.36Zm49.39-.43a.68.68,0,0,1,.35-.89h0a.68.68,0,0,1,.9.35h0a.68.68,0,0,1-.35.9h0a.69.69,0,0,1-.27.05h0A.68.68,0,0,1,75.09,44.93ZM26.84,42.87a.68.68,0,0,1-.26-.93h0a.68.68,0,0,1,.92-.27h0a.68.68,0,0,1,.27.93h0a.68.68,0,0,1-.6.35h0A.69.69,0,0,1,26.84,42.87Zm47.07-.33a.68.68,0,0,1,.26-.93h0a.68.68,0,0,1,.93.26h0a.68.68,0,0,1-.26.93h0a.66.66,0,0,1-.33.09h0A.67.67,0,0,1,73.91,42.53Zm-45.68-2a.68.68,0,0,1-.17-.95h0a.68.68,0,0,1,1-.17h0a.68.68,0,0,1,.17.95h0a.68.68,0,0,1-.56.29h0A.69.69,0,0,1,28.23,40.5Zm44.26-.23a.68.68,0,0,1,.17-1h0a.68.68,0,0,1,.95.17h0a.68.68,0,0,1-.17.95h0a.66.66,0,0,1-.39.12h0A.67.67,0,0,1,72.49,40.27Zm-42.63-2a.68.68,0,0,1-.08-1h0a.68.68,0,0,1,1-.07h0a.68.68,0,0,1,.07,1h0a.69.69,0,0,1-.52.24h0A.67.67,0,0,1,29.85,38.29Zm41-.13a.68.68,0,0,1,.07-1h0a.69.69,0,0,1,1,.07h0a.68.68,0,0,1-.07,1h0a.7.7,0,0,1-.45.16h0A.67.67,0,0,1,70.85,38.16ZM31.69,36.25a.68.68,0,0,1,0-1h0a.68.68,0,0,1,1,0h0a.68.68,0,0,1,0,1h0a.68.68,0,0,1-.47.19h0A.67.67,0,0,1,31.69,36.25Zm37.31,0h0a.68.68,0,0,1,0-1h0a.68.68,0,0,1,1,0h0a.68.68,0,0,1,0,1h0a.69.69,0,0,1-.5.21h0A.67.67,0,0,1,69,36.23ZM33.72,34.41a.68.68,0,0,1,.12-1h0a.68.68,0,0,1,1,.12h0a.68.68,0,0,1-.12,1h0a.66.66,0,0,1-.42.14h0A.67.67,0,0,1,33.72,34.41ZM67,34.49a.68.68,0,0,1-.12-1h0a.68.68,0,0,1,1-.12h0a.69.69,0,0,1,.12,1h0a.7.7,0,0,1-.54.26h0A.66.66,0,0,1,67,34.49Zm-31-1.7a.69.69,0,0,1,.22-.94h0a.69.69,0,0,1,.94.22h0a.68.68,0,0,1-.22.94h0a.66.66,0,0,1-.36.11h0A.69.69,0,0,1,35.93,32.79ZM64.78,33a.68.68,0,0,1-.22-.94h0a.68.68,0,0,1,.94-.22h0a.68.68,0,0,1,.22.94h0a.68.68,0,0,1-.58.32h0A.68.68,0,0,1,64.78,33ZM38.29,31.39a.68.68,0,0,1,.31-.91h0a.68.68,0,0,1,.91.31h0a.68.68,0,0,1-.31.91h0a.69.69,0,0,1-.3.07h0A.68.68,0,0,1,38.29,31.39Zm24.15.28a.68.68,0,0,1-.31-.91h0a.68.68,0,0,1,.91-.31h0a.68.68,0,0,1,.31.91h0a.68.68,0,0,1-.61.38h0A.66.66,0,0,1,62.44,31.67ZM40.78,30.24a.68.68,0,0,1,.4-.88h0a.68.68,0,0,1,.88.4h0a.69.69,0,0,1-.4.88h0a.73.73,0,0,1-.24,0h0A.68.68,0,0,1,40.78,30.24Zm19.2.38h0a.69.69,0,0,1-.4-.88h0a.68.68,0,0,1,.88-.4h0a.69.69,0,0,1,.4.88h0a.68.68,0,0,1-.64.45h0A.7.7,0,0,1,60,30.62ZM43.37,29.35a.68.68,0,0,1,.49-.83h0a.69.69,0,0,1,.83.49h0a.69.69,0,0,1-.49.83h0l-.17,0h0A.69.69,0,0,1,43.37,29.35Zm14.06.47h0a.68.68,0,0,1-.49-.83h0a.68.68,0,0,1,.83-.49h0a.68.68,0,0,1,.49.83h0a.68.68,0,0,1-.66.51h0ZM46,28.73a.68.68,0,0,1,.57-.78h0a.68.68,0,0,1,.78.57h0a.68.68,0,0,1-.57.78h-.11A.68.68,0,0,1,46,28.73Zm8.77.56h0a.68.68,0,0,1-.57-.77h0a.68.68,0,0,1,.77-.57h0a.68.68,0,0,1,.57.77h0a.68.68,0,0,1-.68.58h-.1Zm-6-.9a.68.68,0,0,1,.64-.72h0a.68.68,0,0,1,.72.65h0a.68.68,0,0,1-.64.72h0A.68.68,0,0,1,48.76,28.38Zm3.39.64a.68.68,0,0,1-.65-.71h0a.68.68,0,0,1,.71-.65h0a.68.68,0,0,1,.65.71h0a.68.68,0,0,1-.68.65h0Z" fill="#a34102"/><path d="M77.92,56.06a.68.68,0,0,1-.68-.68.58.58,0,0,1,0-.13.56.56,0,0,1,0-.13l.06-.12.09-.11.11-.09.12-.06.13,0a.58.58,0,0,1,.27,0l.13,0,.12.06.1.09.09.11.06.12a.84.84,0,0,1,0,.13.9.9,0,0,1,0,.13.67.67,0,0,1-.2.48.71.71,0,0,1-.48.2Z" fill="#a34102"/><path d="M18.62,56.07A32.91,32.91,0,0,1,74.47,32.45l4.75-4.75a39.63,39.63,0,0,0-56,56L27.92,79a32.82,32.82,0,0,1-9.31-22.92" fill="#fb3c07"/><path d="M82,79.17A39.63,39.63,0,0,0,26.38,23.59h0a40,40,0,0,0-3.62,3.15,39.64,39.64,0,1,0,56.05,56A40.06,40.06,0,0,0,82,79.17c-1.42-.35-2.86-.77-4.3-1.25C79.1,78.4,80.54,78.82,82,79.17ZM50.51,88a32.92,32.92,0,0,1-23-56.48q.52-.5,1.05-1h0A32.91,32.91,0,0,1,75,77h0q-.48.54-1,1.05A32.83,32.83,0,0,1,50.51,88Z" fill="#ff7e00"/><path d="M74.06,78A32.91,32.91,0,1,1,27.51,31.49q.52-.5,1.05-1a58,58,0,0,1-2.18-6.92,40.05,40.05,0,0,0-3.62,3.15,39.64,39.64,0,1,0,56.05,56A40.05,40.05,0,0,0,82,79.17,57.83,57.83,0,0,1,75,77q-.48.54-1,1.05" fill="#ff6a00"/><circle cx="51.06" cy="55.59" r="3.55" fill="#622808"/><line x1="51.06" y1="55.59" x2="51.06" y2="30.9" fill="none" stroke="#622808" stroke-miterlimit="10" stroke-width="3"/></svg>