<svg id="Layer_1" data-name="Layer 1" xmlns="http://www.w3.org/2000/svg" viewBox="0 0 100 100"><title>line-pesonal</title><path d="M77.51,68.77c-3.38-1.57-12.06-5.25-16.94-7.31a4.85,4.85,0,0,1,.11.82c.11,2.47-1.51,13-1.51,13a13.56,13.56,0,0,0-2.36-3.07c-1.23,6.64-4.07,16.92-4.07,16.92l-4.32,0-4.29,0S41.29,78.9,40.05,72.26a13.54,13.54,0,0,0-2.32,3s-1.63-10.54-1.51-13a4.86,4.86,0,0,1,.11-.82c-4.89,2.06-13.58,5.74-17,7.31-4.82,2.24-6.2,12.47-6.2,16.73,1.69,2.36,21.4,3.74,35.25,3.74S82,87.89,83.7,85.53C83.7,81.27,82.33,71,77.51,68.77Z" fill="none" stroke="#ff6200" stroke-miterlimit="10" stroke-width="2"/><path d="M57.73,55l-.37.56A19.28,19.28,0,0,1,51.17,60a6.62,6.62,0,0,1-2.75.72A6.58,6.58,0,0,1,45.67,60a19.23,19.23,0,0,1-6.17-4.44L39.13,55H39v3.29c0-.05.17-.11.25-.16.07.7.16,1.36.26,2,.86,5.32,3.06,8.14,7.82,8.51l.9,0h.36l1,0c4.74-.37,6.93-3.19,7.79-8.5.1-.63.19-1.29.26-2,.11.07.34.14.34.22V55Z" fill="none" stroke="#ff6200" stroke-miterlimit="10" stroke-width="2"/><path d="M43.89,88.16,47,75.29l-1.52-1.6L46.33,71l.74-2.25A11.43,11.43,0,0,0,41.51,71a13.47,13.47,0,0,0-1.46,1.26c1.23,6.64,4.08,16.88,4.08,16.88l4.29,0-4.26,0Z" fill="none" stroke="#ff6200" stroke-miterlimit="10" stroke-width="2"/><path d="M55.39,71a11.43,11.43,0,0,0-5.62-2.25L50.51,71l.89,2.69-1.49,1.6L53,88.16l-.29,1-4.28,0,4.32,0s2.84-10.28,4.07-16.92A13.47,13.47,0,0,0,55.39,71Z" fill="none" stroke="#ff6200" stroke-miterlimit="10" stroke-width="2"/><path d="M47.32,68.63c.29,0,.59,0,.9,0Z" fill="none" stroke="#ff6200" stroke-miterlimit="10" stroke-width="2"/><path d="M49.6,68.63l-1,0h0C48.95,68.67,49.28,68.65,49.6,68.63Z" fill="none" stroke="#ff6200" stroke-miterlimit="10" stroke-width="2"/><path d="M48.58,68.67h0Z" fill="none" stroke="#ff6200" stroke-miterlimit="10" stroke-width="2"/><path d="M49.9,75.29l1.49-1.6L50.51,71l-.74-2.25c-.38,0-.77-.06-1.17-.07l0,.15c-.09,0-.14.17-.15.17a12.31,12.31,0,0,0-1.36-.08L46.33,71l-.89,2.69L47,75.29,43.89,88.16l.27,1,4.26,0,4.28,0,.29-1Z" fill="none" stroke="#ff6200" stroke-miterlimit="10" stroke-width="2"/><path d="M48.46,68.67h0Z" fill="none" stroke="#ff6200" stroke-miterlimit="10" stroke-width="2"/><path d="M63.87,35.5S61.75,36.71,61.48,41l-.79.19c0-10.47-.69-11-1.52-11.21-1.63-.49-3.62,0-4.6-1.23-.29,1-1.3,2.83-5,3.7s-10.21-1.55-12-3c-.77,2.8-1,10.11-1.16,12.58l-.82-.36A8.88,8.88,0,0,0,33,35.5c-1.34,0-2.16.34-2.16,3.7,0,5.16,4,9.08,5.34,9.64,0,1.2,1.84,4.44,3,6.17l.37.56A19.23,19.23,0,0,0,45.67,60a6.58,6.58,0,0,0,2.75.72A6.62,6.62,0,0,0,51.17,60a19.28,19.28,0,0,0,6.19-4.44l.37-.56c1.12-1.72,3-5,3-6.17,1.34-.56,5.35-4.48,5.35-9.64C66.05,35.83,65.21,35.5,63.87,35.5Z" fill="none" stroke="#ff6200" stroke-miterlimit="10" stroke-width="2"/><path d="M48.26,68.83s0-.08,0-.08c-.31,0-.61-.05-.9-.07-4.75-.37-7-3.21-7.82-8.53-.1-.63-.19-1.3-.26-2L39,58.3a5,5,0,0,0-2.67,3.16,4.85,4.85,0,0,0-.11.82c-.11,2.47,1.51,13,1.51,13A14,14,0,0,1,41.51,71a11.34,11.34,0,0,1,5.56-2.08,12.72,12.72,0,0,1,1.37.08h0C48.37,69,48.32,68.83,48.26,68.83Z" fill="none" stroke="#ff6200" stroke-miterlimit="10" stroke-width="2"/><path d="M60.68,62.29A4.47,4.47,0,0,0,58,58.35l-.34-.22c-.07.7-.16,1.36-.26,2-.86,5.31-3.06,8.13-7.79,8.5-.32,0-.65,0-1,0h-.14a11.81,11.81,0,0,1,1.31.07A11.43,11.43,0,0,1,55.39,71a13.95,13.95,0,0,1,3.78,4.29S60.79,64.75,60.68,62.29Z" fill="none" stroke="#ff6200" stroke-miterlimit="10" stroke-width="2"/><path d="M62.32,21.64c0-3-4.35-6-13.9-6S33.06,20.19,33,35.27c0,.08,0,.15,0,.22a8.88,8.88,0,0,1,2.57,6.18l.82.36c.12-2.47.4-9.78,1.16-12.58,1.81,1.5,8.33,3.91,12,3s4.71-2.73,5-3.7c1,1.27,3,.74,4.6,1.23.83.25,1.52.74,1.52,11.21l.79-.19c.28-4.33,2.39-5.55,2.39-5.55C63.87,28.49,64.68,22.9,62.32,21.64Z" fill="none" stroke="#ff6200" stroke-miterlimit="10" stroke-width="2"/></svg>