<svg id="Layer_1" data-name="Layer 1" xmlns="http://www.w3.org/2000/svg" viewBox="0 0 100 100"><title>line-lock</title><rect x="31" y="43" width="37.99" height="37.99" rx="7.23" ry="7.23" fill="none" stroke="#ff6200" stroke-miterlimit="10" stroke-width="2"/><path d="M61.77,77H38.23A3.23,3.23,0,0,1,35,73.77V71" fill="none" stroke="#ff6200" stroke-miterlimit="10" stroke-width="2"/><path d="M35,63V50.23A3.23,3.23,0,0,1,38.23,47H49.92" fill="none" stroke="#ff6200" stroke-miterlimit="10" stroke-width="2"/><path d="M60.29,43V29.53a8.71,8.71,0,0,0-8.71-8.71H48.42a8.71,8.71,0,0,0-8.71,8.71v5.25h4V29.53a4.72,4.72,0,0,1,4.71-4.71h3.15a4.72,4.72,0,0,1,4.71,4.71V43" fill="none" stroke="#ff6200" stroke-miterlimit="10" stroke-width="2"/><line x1="30.84" y1="71" x2="49.92" y2="71" fill="none" stroke="#ff6200" stroke-miterlimit="10" stroke-width="2"/><line x1="31" y1="67" x2="50.08" y2="67" fill="none" stroke="#ff6200" stroke-miterlimit="10" stroke-width="2"/><line x1="31" y1="63" x2="50.08" y2="63" fill="none" stroke="#ff6200" stroke-miterlimit="10" stroke-width="2"/></svg>