<svg id="Layer_1" data-name="Layer 1" xmlns="http://www.w3.org/2000/svg" viewBox="0 0 100 100"><title>line-online-banking</title><path d="M83,65V76a3,3,0,0,1-3,3H20a3,3,0,0,1-3-3V39a3,3,0,0,1,3-3H80a3,3,0,0,1,3,3V52" fill="none" stroke="#ff6200" stroke-miterlimit="10" stroke-width="2"/><path d="M87.52,84h-75A1.58,1.58,0,0,1,11,82.33V79H89v3.33A1.58,1.58,0,0,1,87.52,84Z" fill="none" stroke="#ff6200" stroke-miterlimit="10" stroke-width="2"/><path d="M87,53a1,1,0,0,1,1,1v9a1,1,0,0,1-1,1H69a1,1,0,0,1-1-1V54a1,1,0,0,1,1-1H87m0-2H69a3,3,0,0,0-3,3v9a3,3,0,0,0,3,3H87a3,3,0,0,0,3-3V54a3,3,0,0,0-3-3Z" fill="#ff6200"/><line x1="67" y1="56" x2="89" y2="56" fill="none" stroke="#ff6200" stroke-miterlimit="10" stroke-width="2"/><line x1="67" y1="58" x2="89" y2="58" fill="none" stroke="#ff6200" stroke-miterlimit="10" stroke-width="2"/><polyline points="79 65 79 75 21 75 21 40 79 40 79 51" fill="none" stroke="#ff6200" stroke-miterlimit="10" stroke-width="2"/><line x1="40.39" y1="68" x2="53.12" y2="47" fill="none" stroke="#ff6200" stroke-miterlimit="10" stroke-width="2"/><line x1="46.39" y1="67" x2="54.71" y2="53.28" fill="none" stroke="#ff6200" stroke-miterlimit="10" stroke-width="2"/></svg>