<svg xmlns="http://www.w3.org/2000/svg" width="226" height="27" viewBox="0 0 226 27"><defs><style>.a{fill:#006}.b{fill:#ff6200}</style></defs><title>ing-direct-logo</title><path class="a" d="M1.47 25.82v-.74c1.62 0 2.77-.13 2.77-2.48V10.27c0-2.43-.88-2.49-2.77-2.49v-.71H11v.71c-1.95 0-2.76.06-2.76 2.49V22.6c0 2.35 1 2.48 2.76 2.48v.74zm32.67-14.23V26H33L18.65 11.12a6.46 6.46 0 0 1 .07 1.15v9c0 2.76 0 3.77 2.53 3.77v.74H14.5v-.74c2.56 0 2.56-1.21 2.56-3.77V11c0-1.53 0-3.21-2.69-3.21v-.72h6.37l11.81 12.14a4.48 4.48 0 0 1-.07-1v-6.62c0-2.67.07-3.81-2.47-3.81v-.71h6.75v.71c-2.49 0-2.62 1.07-2.62 3.81m23.34 7.9v4.79a17.11 17.11 0 0 1-7.76 2c-7 0-11.24-4.11-11.24-9.35 0-5.64 4.83-10.29 11-10.29a11.64 11.64 0 0 1 3.87.67 8 8 0 0 0 1.93.58c.47 0 .6-.79.67-1.25h.67l.61 6.48h-.83a6.19 6.19 0 0 0-1.75-3.07 6.83 6.83 0 0 0-5-2c-4.22 0-6.68 3.34-6.68 8.37s3 8.33 7 8.33a8.21 8.21 0 0 0 3.58-.88V19c0-1.58-.25-2.19-2.54-2.19v-.74h8.47v.74c-2.1 0-2 .68-2 2.67"/><path class="b" d="M73.82 10.34c-.13-.27-.47 0-.81-.14a.4.4 0 0 0 .21.41 1.09 1.09 0 0 1 .61-.27m.54-3.55c0-.13-.14-.27-.34-.4h-1.62a.39.39 0 0 0 .4.4c0 .28.2.33.27.4s.27.14.47 0c.2.14.27-.12.34 0a3.8 3.8 0 0 1-.07.92c-.07.47-.47.41-.81.61 0 .2-.2.54 0 .74a3.25 3.25 0 0 1 .68-.34c0-.2.2-.4.47-.54 0-.61.2-1.19.2-1.79m3 3.88v-.33h-.68l-.06.07zm-4-6.16c-.07-.66-.81-.72-1.15-1H72a1.3 1.3 0 0 0-.71 1.18c.18.61.58.2.84.61a7.81 7.81 0 0 1 1.28-.8m1.49.73c-.13-.14-.54.07-.74.14a.56.56 0 0 0-.47.47h.74a2.16 2.16 0 0 1 .47-.61m3.32 1.42s.13 0 0-.07l-1.43-.2c-.13.2-.47.2-.47.4h-.14a7.08 7.08 0 0 1 .14 1.72.6.6 0 0 1 .54.61 4.38 4.38 0 0 1 .8.4c.12-.07.18-.27.25-.47-.25-.34-.84-.14-.84-.74l-.4-.14a4.7 4.7 0 0 0-.07-1.06l.07-.05c0 .05.06.12.2.26a1.1 1.1 0 0 0 .8-.14c.12-.07.12-.4.25-.4s.25 0 .32-.13m-1-.81c0-.2-.07-.2-.13-.2-.34 0-.34-.54-.61-.4s-.27-.14-.47 0c0 .07 0 .07.13.07.34 0 .2.47.47.54zm2.24-.41a1.39 1.39 0 0 0-.14-1.25c-.13-.27-.47-.4-.81-.67l-.53.29a.78.78 0 0 0-.37.72 2.73 2.73 0 0 1 1.1 1.14H79c.2-.2.34 0 .47-.2M65.6 24.07c-.07 0-.27-.2-.47-.2-.19.4 0 .68 0 1.15a1.46 1.46 0 0 1-.07.41c-.12 0-.37-.27-.43-.54V23.8l.56-.73a.82.82 0 0 1 .41 1m1.73-.74a1.39 1.39 0 0 1-.2.74c-.07-.27-.26-.6-.59-.6a1.55 1.55 0 0 0-.06 1.53 1.87 1.87 0 0 1-.6.41 2.57 2.57 0 0 1-.14-1 4.18 4.18 0 0 1 .2-1.34c.2-.21.34-.55.54-.69h.72c-.32 0-.32.28-.32.48.19.07.46.14.46.46m2.36.41c0 .54-.88 1.28-.88 1.28 0-.34.2-.74.2-1.15a1 1 0 0 0-.54-.27c-.2.14-.2.27-.27.47-.2.4-.61.81-.67 1.21a.07.07 0 0 1-.07-.07 4.21 4.21 0 0 1 .47-2.28 1.29 1.29 0 0 1 1-.47l.34.06-.27.4c.27.14.67.39.67.8m1.84-.66l-.18.66-.44-1.2c-.54-.48-1.15-.55-1.49-.82-.27-.07-.27.14-.4 0a.68.68 0 0 1 .2-.54h.4l.41.2c.2.21.67.21.67.61 0 .07-.07.13.14.41l.63.14zm1-1l-.47.41c-.14-.14 0-.48-.2-.68 0-.14.13-.2.07-.27s-.83-.41-.83-.41a9.22 9.22 0 0 1-.87-.67c-.27-.07-.47.07-.81.13v-.06c.13-.27.13-.61.54-.61.2 0 .47 0 .6.2.27 0 .41.27.6.34a3.41 3.41 0 0 0 .77.6.42.42 0 0 0 .2.41c.41 0 .27.4.41.67m.35-2.11c0 .2-.07 1-.07 1-.13-.47-.47-.95-.88-.95a1.73 1.73 0 0 1-.46-.6c-.18-.2-.37 0-.63-.2a1.4 1.4 0 0 0-.88.2v-.2l.47-.54c.47.07 1 0 1.16.34a2.63 2.63 0 0 1 .74.54v.2c.13.06.4.13.54.2m-.34-3.41l-.27 1c-.34.26-.8.13-1.17.13.49-.13.9-.71 1.17-1.12.07-.07.14 0 .27 0m-.94-.81a1.44 1.44 0 0 1-.43.94 2.41 2.41 0 0 1-.26.2c0-.41.19-.74.19-1.08.19-.06.37-.2.49-.06m-.75-1c-.34.34-.68.48-.81.88a1.33 1.33 0 0 0-.13-.54.87.87 0 0 1 .33-.47c.2.06.34.06.61.13m4.87 5.1a.87.87 0 0 1-.81.14l-.4-.54h1zm-1.35-3.07c-.2.4-.4.78-.81.92a2.29 2.29 0 0 1-.95 0c.2-.13.4-.2.68-.38l.54-.54zm6.15 7l-.2.2c-.2-.2-.07-.74-.4-.81s-.61-.33-.74-.39l.27-.13a.34.34 0 0 1 .27 0c.13.13.27.2.27.34s.34 0 .47.19a1 1 0 0 1 .07.61m-4.94-6.51c-.06.38-.27.51-.61 1-.2.14-.61.2-1 .41.06-.2.26-.27.4-.47a4.46 4.46 0 0 0 .47-.73 1.23 1.23 0 0 1 .74-.18M72.34 15a2.29 2.29 0 0 1-1-.84 2.17 2.17 0 0 1-.19-.81.58.58 0 0 1 .49.34v.07a2.4 2.4 0 0 1 .7 1.24m5.2 4.83h-.14a2.12 2.12 0 0 1-.68-.34 1.54 1.54 0 0 1-.06-.41h.53zm5.32 3.11a5.36 5.36 0 0 0-.27.8c-.14-.41-.27-1-.74-1a.79.79 0 0 0-.4-.55l-.52-.07c.07.27.45.27.19.62.26.2.46.2.6.53s0 .47.07.61l-.4.2c0-.34.07-1-.38-1.14-.4.14-.47-.4-.74-.55s-.13-.34-.34-.2-.74 0-1.08.2l.34-.54c.27-.2.54-.14.81-.2l.54-.06a4.42 4.42 0 0 1 1.53.47.65.65 0 0 1 .4.62c.14.06.41.06.41.27m-9.64-9l-.21.84a4 4 0 0 1-.47-1.25zm1.28 1.92c-.4-.4-.74-.74-.74-1.15a1 1 0 0 1 .61.13c0 .34.14.61.14 1m7.68 5.71c-.27-.21-.67-.21-.81-.54a2.89 2.89 0 0 0-.78-.07 4 4 0 0 1-.88.07c-.07 0 0-.07-.14-.13a2.39 2.39 0 0 0-1.22.54l.34-.81a4.24 4.24 0 0 0 .61-.13 2.55 2.55 0 0 1 .68-.07v.07a2.66 2.66 0 0 1 2.14.54zm-4-3.84a1.32 1.32 0 0 1-.75.26 6.49 6.49 0 0 1-1.08-1.25l1.08.2a7.7 7.7 0 0 1 .75.78m-2.24-2.95c0 .48-.07 1.08-.54 1.29l-.14-.68a2.61 2.61 0 0 0 .68-.61M82 20.23c-.34 0-.61 0-.81-.34-.07 0-.18-.2-.25-.06-.33.27-.67-.2-1.08-.14a1.31 1.31 0 0 1-.74.4V20a.63.63 0 0 1 .4-.54c.41.14.74-.74 1.15-.27a1.53 1.53 0 0 0 .51.07c.47.2.61.6.81.94m1.55 2.51h-.07c-.14-.2-.2-.35-.34-.35.2-.74-.2-1.35-.33-2v-.2c.2.34.74.68.67 1a13.17 13.17 0 0 1 .07 1.49m-6.14-6.78c-.34-.2-.95-.27-.81-.67a1.21 1.21 0 0 1 .47-.53 3.5 3.5 0 0 0 .34 1.21m-6.89-8.69l-.34.41A14 14 0 0 1 70 9.33l-.34-1.08A2.64 2.64 0 0 1 70 7.4zm10 10.16h-.2c-.74.24-1.35-.2-2-.61a3.49 3.49 0 0 1 1.22-.2l.2.41a4 4 0 0 1 .74.4m-3.45-5.43a1.92 1.92 0 0 1-.61 1.28 1 1 0 0 0-.27-.61c-.07 0 0 .2-.07.2a5.91 5.91 0 0 0-.13.68.75.75 0 0 1-.68.06v-.2a1.47 1.47 0 0 1-.07-.54l-.07-.07c-.2.07-.2.2-.2.34a1 1 0 0 0-.2.47.94.94 0 0 1-.61-.2v-.61c0-.14 0-.14-.07-.14l-.34.34a1.48 1.48 0 0 1-.34-1.08 3.9 3.9 0 0 1 3.24-.07c.13.07.27.07.4.14m2 3.7c-.27.07-.74.2-.87-.13a1.6 1.6 0 0 1 0-1.59 8.57 8.57 0 0 1 .22 1.11c.07.27.48.41.61.61m-8.6-9.35l-.47.14.11-.34a3.11 3.11 0 0 1 .4-.61zm11.28 10.35a1.75 1.75 0 0 1-1-.2 2.28 2.28 0 0 1-.74-.54 2.46 2.46 0 0 1 .74-.27 4.54 4.54 0 0 0 1 1m-1.87-1.89c-.34.06-.61-.27-.94-.4a8.21 8.21 0 0 0-.27-1c.27.2.88.2.74.81 0 .17.27.3.47.57m5.52 4.76c0 .4-.27.74-.33 1.15a1.34 1.34 0 0 0-.33-1c0-.14.19-.14.06-.34 0 0-.37-.2-.37-.47s.25-.47.37-.67.27.13.27.54a1 1 0 0 1-.07.4c-.07.2.4.2.4.41m1.55.74c0 .34-.4.74-.54 1 .14-.34.14-1 0-1s-.4 0-.4-.14.07-.47.07-.6-.2-.41-.2-.54c0-.41.47-.47.61-.74a3.56 3.56 0 0 1 .07.88c0 .13.2.54 0 .88 0 .2.4.07.4.27M81.37 14c-.38 0-.85.2-1.05-.2.14-.07.27-.27.41-.4zm1.89 1.52l-.34.13a2 2 0 0 1-1.42-.48c.27 0 .61-.34.61-.34a2.54 2.54 0 0 0 1.15.68m-2.74-4.22a6.4 6.4 0 0 0-2.67-.84.94.94 0 0 1-.06.47A8.84 8.84 0 0 1 80 12.19v.61a5.28 5.28 0 0 0-2.26-1.55c-.06.14-.32.27-.39.54a3.61 3.61 0 0 0-1.56-.74c-.2 0-.34-.71-.34-.71a1.11 1.11 0 0 0 .68-.68h.27c.2 0 .2-.14.2-.34 0-.41-.88-.41-1.28-.41a1.75 1.75 0 0 0-1.08.2c-.13 0-.06.2-.06.34s.2.2.2.2.27-.14.41-.14c-.07.41.07.61.47.81l-.07.65a4.42 4.42 0 0 0-2 .59 1.8 1.8 0 0 1-.47-.54 10.25 10.25 0 0 0-2.17 1.35v-.47a8.35 8.35 0 0 1 2-1.12v-.47c-.27-.14-.54 0-.81 0a3.3 3.3 0 0 0-1.57.65 2.28 2.28 0 0 0-.07-.45 4.1 4.1 0 0 1 2.51-.61v-.23c-.07-.14-.07-.34-.2-.34a2.58 2.58 0 0 1-.81-1.42l.27-.13a2.53 2.53 0 0 1 0-1.73 2.11 2.11 0 0 1-.87-.8 4.19 4.19 0 0 1-.34-.92c.21-.4.34-.54.53-.94a.42.42 0 0 0 .37-.2c.33-.07.53-.4.94-.2a2.38 2.38 0 0 1 .74.2.37.37 0 0 0 .13.34c.4 0 .4.4.61.74a1.69 1.69 0 0 0 .54.07c.4.13.74.13.88.31a2.64 2.64 0 0 1 1.69-.31 6 6 0 0 0 .27-.8c.06.2.06 0 .2 0 .25-.2.56-.54 1-.4.27.2.74.07 1 .4s.34.67.54 1c-.2.4 0 .94-.4 1.14l-.41.4c-.13 0-.13.14-.34.14a2.18 2.18 0 0 1-.13 1.59c.13-.06.34-.06.34-.25.07.07 0 .19 0 .25V8a1.41 1.41 0 0 1-.47.95c-.13.41-.47.95-.91 1v.13a5.92 5.92 0 0 1 2.73.74zm5.18 6.48c0 .13-.2.26-.27.26a1.59 1.59 0 0 1-.4-.64 1.41 1.41 0 0 1 .2-.74c.07 0 .14.14.2.14s0 .27.07.47.34.38.2.51m5.42 4.65l-.13.14a1.84 1.84 0 0 0-.91-.21c0-.27-.2-.61-.34-.61-.4 0-.34.27-.67.27l.61-.61c.07-.13.07-.13.2-.13s.27.2.47.2a1 1 0 0 1-.06.4c.2.13.33-.07.46.13s.37.13.37.41m-6.3-6.11c0 .2-.13.27-.26.41a1.47 1.47 0 0 1-.25-.47 1.79 1.79 0 0 1 .06-.61c.18.2.44.47.44.67m2.64 2c0 .41-.07.88-.07 1.35-.2 0-.2-.14-.2-.41a7.24 7.24 0 0 0-.34-1.15 11.56 11.56 0 0 0-.74-1.58c-.07-.27-.41-.4-.68-.61a1.21 1.21 0 0 1 .95.27c0 .13.07.2.27.4.47 0 .34.61.74.88-.2.17-.27.31-.41.44.2.13.41.2.47.4M84 14.46a.91.91 0 0 1-1.15-.07l.54-.24a2.59 2.59 0 0 0 .61.3m-1.49-1.52c-.07.27-.34 0-.4 0h-.61c-.07-.13-.14-.2-.14-.34.27-.07.47-.2.68-.07s.27.4.47.4m5.89 5.28c0 .27-.14.47-.07.74-.14-.41-.41-.81-.54-1.21 0-.07-.07-.07.07-.13s.34 0 .34.07a1.23 1.23 0 0 1 .2.53m3.38 2.8a2.85 2.85 0 0 1-.14.67c-.46-.06-.46-.61-.53-.67-.31-.41-.77-.07-1.1-.07-.13-.41.07-.41.07-.68.2 0 .41-.14.6 0 .31-.14.5.2.83.2a4.28 4.28 0 0 0 .27.54m1.35 1.9a1.16 1.16 0 0 0-.2.39c0-.33-.41-.53-.68-1.07l.27-.48a.86.86 0 0 1 .47.68.37.37 0 0 0 0 .28c0 .06.14.06.14.2M82 11.45c-.4 0-.61-.2-.81-.58a3.27 3.27 0 0 1 0-.81c.13.27.13.41.27.54.27-.14.27.2.34.27a1.69 1.69 0 0 1 .2.58m5.75 5a6.5 6.5 0 0 1-1.48-1.56c.54 0 .68.54 1.08.61a2.17 2.17 0 0 1 .4.4zM92 20.23c-.48 0-.21-.94-1.18-.94-.19 0-.31.34-.58.4 0-.07.07-.47.07-.47a.61.61 0 0 1 .33-.54c.5 0 .37.2.76.34a1.63 1.63 0 0 0 .61.2zm1.62.88a1.31 1.31 0 0 1-.2.88l-.42-.62c.14-.2.14-.47.34-.81.07 0 .27.47.27.54m-13-12.86c0 .07-.14.68-.14.68l-.47.14.34-1.46a2.39 2.39 0 0 1 .34.65m11.64 10.49c-.2-.07-.68-.13-.68-.34s-.14-.34-.46-.34a2.5 2.5 0 0 0-.83.2 1.81 1.81 0 0 1-.27-.53 3.2 3.2 0 0 1 .91-.2c.45 0 .93 0 .93.2s.41.33.41 1m.61-1.45c-.47 0-.94-.13-1-.34s0-.41-.34-.41c-.14 0-.34.2-.34.2s-.5-.2-.5 0-.25.47-.59.47a.87.87 0 0 1-.4-.07v-.67c.87 0 .81-.27 1.18-.27s.45.14.65.14.14-.14.47-.14.47.27.67.34c0 .2.2.47.2.74m-.2-1.48a4 4 0 0 0-1.8-.54 3 3 0 0 0-1.32.61l-.14-.61c.41-.07.41-.41.68-.41s.47-.07.65-.07.31-.13.38-.13c.33 0 .19.33.4.33s.34-.14.47-.14c.34 0 .61.54.67.95m-1.55-1.49c-.38 0-.44-.05-.69-.05a1.09 1.09 0 0 0-.95.46.56.56 0 0 1 0-.57 1.45 1.45 0 0 1 .81-.47.8.8 0 0 1 .83.64m.06-1a3.71 3.71 0 0 0-1.09-.3 1.73 1.73 0 0 0-.81.34c-.2-.27.13-.81.4-.95a.5.5 0 0 1 .54 0c0 .4.46.2.7.34a1.67 1.67 0 0 1 .25.61m1.62-7.69h-.74c-.13-.2-.34 0-.47 0s-.2 0-.46-.2a2.28 2.28 0 0 0 .94-.34c.27.2.54.27.74.54m2 1.42a.72.72 0 0 0-.61-.41c-.2-.27-.47-.61-.74-.61.2 0 .47-.2.81-.2.14.34.41.54.47.81zM77.27 24c-.07 0 .07.14-.6-.54-.14 0-.34.4-.34.54a5.65 5.65 0 0 0 .34 1.82h.53c0-.61.07-1.28.07-1.82m1.43.07c0-.27-.2-.34-.47-.34s-.44.2-.44.34-.12 1.75-.12 1.75h.43a11.36 11.36 0 0 0 .6-1.75m8.83-.81l-.68.07a.59.59 0 0 1 .27.54.84.84 0 0 1-.27.54c-.13-.14-.13-.34-.27-.54-.13 0-.2.34-.2.47a3.24 3.24 0 0 0 .47 1.48h.61a11.6 11.6 0 0 1-.21-1.62 3.24 3.24 0 0 1 .27-.95M102 17.16a11.4 11.4 0 0 0-3.38-8c-.94-.95-2-1.4-2.78-2.33a4.92 4.92 0 0 1-1-1.35 3.33 3.33 0 0 0-.95-.74l.21.61h-.07a1.67 1.67 0 0 1-.94-.41l.27-.27c-.07-.13-.27-.13-.41-.13-1.08-.18-2.07.4-3.11.6v.14c.67.2.8 1 1.17 1.42h.39c.14 0 .34.13.47.13a1.37 1.37 0 0 0-.13-.4.25.25 0 0 1 .4 0c.34.2.81-.14 1.15.4a2.12 2.12 0 0 0-1.1.17c0 .07.2.19.14.33-.34-.14-.74 0-.88-.26l-.07.05A3.73 3.73 0 0 0 93 8.18c.88.14 1.62-.27 2.47-.07a9.69 9.69 0 0 1 5.21 8.44c0 5-2.84 6.92-4.6 6.92a1.94 1.94 0 0 1-1.08-.4 9.38 9.38 0 0 0 .32-2.71 11.64 11.64 0 0 0-2.69-7.56 3.72 3.72 0 0 0-2.37-1.35 1.24 1.24 0 0 0-1.08.34 1.35 1.35 0 0 0-.47 1.15 3.76 3.76 0 0 1-2.09.61 4.09 4.09 0 0 1-2.52-.94v-1c-.2-.07-.87-.47-.53-.78a1.26 1.26 0 0 1 .41.24 2.65 2.65 0 0 0-.41-1.39.9.9 0 0 1-.54-.14 1.17 1.17 0 0 1-.41-.81c.21.34.54.2.74.4a14.88 14.88 0 0 0-.81-2.33c-.14-.6-.74-.94-1.15-1.35-.2-.13-.27-.34-.52-.34s-.27-.4-.27-.6a2 2 0 0 1 .4.19 4.8 4.8 0 0 0-1.55-2.46l-.21.13h-1.03a4.66 4.66 0 0 1 .61-.37.84.84 0 0 0-.74-.27 2 2 0 0 1-.69.27h-.06c0-.2-.07-.47.32-.61a3.54 3.54 0 0 0-1.2 0c-.07.34-.27.54-.27.81-.2.13-.27.34-.47.54A7.56 7.56 0 0 1 76 1.57c-.27.07-.61.27-.75.27a5 5 0 0 0-1.49-.54c.41.27.21.74.27 1.08l-.27-.13c-.06-.27-.4-.47-.47-.81a1.82 1.82 0 0 0-1 .34v.07a.9.9 0 0 1 .61.4c-.47 0-.81-.2-1.28-.2 0 0 0-.07-.06-.07a1.54 1.54 0 0 0-.49.4 2.89 2.89 0 0 0-1 1.34c.13 0 .34 0 .41.07-.27.07-.41.4-.68.47v1a2 2 0 0 0-.61.81 12.05 12.05 0 0 0-.41 3.61.52.52 0 0 1-.34.4v1a6.16 6.16 0 0 1 .61-.5v.84c-.27 0-.47.34-.47.54s.07.54.07.81a.41.41 0 0 0 .07.27c0-.14.13-.27.34-.34a.59.59 0 0 1 .4-.14 2.62 2.62 0 0 0-.4.74l-.2.2a.69.69 0 0 0-.07.2A20.48 20.48 0 0 0 70 17.67a16.93 16.93 0 0 0-1.55 4.18 1.67 1.67 0 0 0-1.22-.4 1.49 1.49 0 0 0-1.05.61 1.09 1.09 0 0 0-1.2.14 1.21 1.21 0 0 0-.56 1.14 1.38 1.38 0 0 0-.41.95 2.53 2.53 0 0 0 .41 1.55H74.5a1.82 1.82 0 0 0-.34-.61 3.1 3.1 0 0 1-.07-1.35 6.39 6.39 0 0 1 .68-1.13c.07-.2 0-.2.07-.27l.47-.08c.27 0 .47-.2.81-.2.2.28.2-.21.54-.34a1.77 1.77 0 0 1 1.83.54c0 .08.07.08.07.14h-.34a1.68 1.68 0 0 0-1.29-.14c0 .14-.06.14-.06.35v.34c.27 0 .47.25.73.39a1 1 0 0 1 .76-.39.74.74 0 0 1 .81.73v.74a2.49 2.49 0 0 0 .95.47.5.5 0 0 1-.54.27H79c-.07-.07-.2-.07-.2-.27a5.49 5.49 0 0 0-.48.81h7.81c-.13-.27-.27-.47-.34-.61a4.59 4.59 0 0 1-.14-1.35l.74-1c.4 0 .74-.13 1.48-.2.14-.2 0-.28.61-.28a2.5 2.5 0 0 1 .94.14c.07.14.07.14 0 .27s-.4-.13-.61-.07.07.2.07.34-.61-.14-.61-.14-.14.39-.2.53l.4.4c.13.2-.2.4-.2.61-.14-.07-.41-.27-.41-.2a11.43 11.43 0 0 0-.07 1.55h.74l.07-1.14c.07-.68.88-1.88 1.35-1.88a1.1 1.1 0 0 1 .66.27c.12.25.44.39.44.52s-.19.21-.5.21c-.13 0-.13-.21-.33-.34l-.41.4s.47.4.47.68a.78.78 0 0 1-.27.67l-.4-.81c-.2 0-.54.4-.54.6s-.14.41-.14.81h4.13a2.59 2.59 0 0 0 1.35-.4h.81a5.47 5.47 0 0 0 4.18-1.69 9.35 9.35 0 0 0 2.6-6.57m-25.88 8.66a4.42 4.42 0 0 1-.41-1.75 2.23 2.23 0 0 1 .2-1.14l-.74.14c-.2.25-.27.39-.27.52l.34-.13c.07 0 .14.13.2.27-.07.34-.47.34-.61.47-.2.67.4 1.08.47 1.62z"/><path class="a" d="M123.34 16.41c0 4.82-2 8.32-6.24 8.32-1 0-2.47.08-2.47-1V8.32a13.27 13.27 0 0 1 2.47-.23c3.91 0 6.24 3.42 6.24 8.32m4.17-.35a8.67 8.67 0 0 0-2.44-6.35C123.36 8 120.66 7 116.49 7l-8.31.09v.71c1.73 0 2.55.73 2.55 2.48v11.8c0 2.11-.63 3-2.55 3v.74h8.5c7 0 10.83-3.68 10.83-9.76m3.21 9.76h9.51v-.74c-1.74 0-2.76-.13-2.76-2.48V10.27c0-2.43.81-2.49 2.76-2.49v-.71h-9.51v.71c1.89 0 2.77.06 2.77 2.49V22.6c0 2.35-1.15 2.48-2.77 2.48zm21-9.9a7.29 7.29 0 0 1-1.87-.16V8.4a6.44 6.44 0 0 1 1.49-.22c2.29 0 4.43.65 4.43 4.12 0 2.2-1.76 3.63-4 3.63m5.5 9.9h5.5v-.74c-1.18 0-1.43-.32-2.26-1.21l-4.77-6.93a4.94 4.94 0 0 0 4-4.93c0-4-3.63-5.1-8-5l-8.36.1v.71c2 0 2.54.45 2.54 2.56v11.68c0 1.74-.13 3-2.53 3v.74h9.26v-.75c-1.85 0-2.77-.45-2.77-3.08v-4.65h1.77zm24.4 0c.32-1.49 1.13-4.26 1.51-5.86h-1c-.67 2.44-2.53 4.54-5 4.6H175c-2.27 0-3.64-.22-3.64-2.26v-5.62h3c1.55 0 2.57.31 2.74 2.42h1a41.63 41.63 0 0 1 0-6.22h-1c-.16 2.08-1.21 2.19-2.81 2.19h-2.99v-6.6s1.89-.08 4-.08c2.24 0 4.73.75 5.24 3.81h1c-.15-1.84-.23-4.33-.23-5.14H164.8v.71c1.82 0 2.52.48 2.52 3.3v11.29c0 2-1 2.7-2.52 2.7v.75zm8.24-9.44c0-5.39 3.23-8.24 6.69-8.24 3.73 0 5.25 2.51 5.87 4.94h1c-.28-1.79-.43-4.34-.56-6.42h-.8c-.05.64-.37 1.24-.73 1.23-1.14 0-2.29-1.2-5-1.2-7.51 0-11 4.46-11 10.08 0 5 3.67 9.51 10.38 9.51 5 0 7.86-2.93 8.85-7.1h-1.5c-.46 2.54-2.27 5.55-6.92 5.55-2.93 0-6.35-2.79-6.31-8.36m34.87-4.2c-.4-3.07-.55-5.15-.55-5.15h-17.14s-.14 2.08-.55 5.15h1a4.44 4.44 0 0 1 4.59-3.78h1.43v12.24c0 3.63-.89 4.41-2.71 4.41v.74h9.38V25c-1.82 0-2.71-.78-2.71-4.41V8.43h1.54a4.6 4.6 0 0 1 4.75 3.78z"/></svg>